<svg xmlns="http://www.w3.org/2000/svg" xmlns:xlink="http://www.w3.org/1999/xlink" width="1600" zoomAndPan="magnify" viewBox="0 0 1200 899.99999" height="1200" preserveAspectRatio="xMidYMid meet" version="1.0"><defs><g/><clipPath id="131f0bd947"><path d="M 462 0 L 1200 0 L 1200 710 L 462 710 Z M 462 0 " clip-rule="nonzero"/></clipPath><clipPath id="dfb83f736f"><path d="M 1074.292969 -282.109375 L 1481.476562 206.457031 L 825.253906 753.371094 L 418.070312 264.804688 Z M 1074.292969 -282.109375 " clip-rule="nonzero"/></clipPath><clipPath id="6bf560a250"><path d="M 1074.292969 -282.109375 L 1481.476562 206.457031 L 825.253906 753.371094 L 418.070312 264.804688 Z M 1074.292969 -282.109375 " clip-rule="nonzero"/></clipPath><clipPath id="811d5b33bf"><path d="M 82 0.480469 L 365.800781 0.480469 L 365.800781 137 L 82 137 Z M 82 0.480469 " clip-rule="nonzero"/></clipPath><clipPath id="f4a10b8f89"><rect x="0" width="284" y="0" height="137"/></clipPath><clipPath id="fca1013143"><path d="M 1 159 L 151 159 L 151 207.839844 L 1 207.839844 Z M 1 159 " clip-rule="nonzero"/></clipPath><clipPath id="2b7ec6a837"><rect x="0" width="150" y="0" height="49"/></clipPath><clipPath id="40aa97e7f7"><path d="M 1 3 L 82.792969 3 L 82.792969 113 L 1 113 Z M 1 3 " clip-rule="nonzero"/></clipPath><clipPath id="836f1c27f8"><rect x="0" width="366" y="0" height="208"/></clipPath></defs><rect x="-120" width="1440" fill="#ffffff" y="-89.999999" height="1079.999988" fill-opacity="1"/><rect x="-120" width="1440" fill="#5b2732" y="-89.999999" height="1079.999988" fill-opacity="1"/><g clip-path="url(#131f0bd947)"><g clip-path="url(#dfb83f736f)"><g clip-path="url(#6bf560a250)"><path fill="#f6ecdf" d="M 634.125 410.804688 C 577.589844 342.972656 618.460938 239.460938 706.089844 228.542969 L 1276.886719 157.441406 C 1292.34375 155.515625 1306.925781 149.191406 1318.890625 139.21875 C 1353.382812 110.472656 1358.039062 59.207031 1329.292969 24.714844 L 1142.089844 -199.902344 C 1104.398438 -245.128906 1037.175781 -251.238281 991.949219 -213.542969 L 500.417969 196.113281 C 455.191406 233.808594 449.082031 301.027344 486.777344 346.253906 L 757.484375 671.066406 C 795.160156 716.269531 862.335938 722.398438 907.570312 684.753906 L 1053.574219 563.246094 C 1107.796875 518.117188 1069.660156 430.128906 999.65625 438.84375 L 775.730469 466.722656 C 722.089844 473.398438 668.734375 452.332031 634.125 410.804688 Z M 634.125 410.804688 " fill-opacity="1" fill-rule="nonzero"/></g></g></g><g transform="matrix(1, 0, 0, 1, 89, 432)"><g clip-path="url(#836f1c27f8)"><g clip-path="url(#811d5b33bf)"><g transform="matrix(1, 0, 0, 1, 82, 0)"><g clip-path="url(#f4a10b8f89)"><g fill="#f6ecdf" fill-opacity="1"><g transform="translate(0.945935, 109.998214)"><g><path d="M 28.296875 1.09375 C 19.816406 1.09375 13.859375 -2.082031 10.421875 -8.4375 C 8.515625 -12.019531 7.5625 -17.25 7.5625 -24.125 L 7.5625 -60.640625 L 16.890625 -60.640625 L 16.890625 -24.125 C 16.890625 -17.6875 18.054688 -13.15625 20.390625 -10.53125 C 22.441406 -8.257812 25.550781 -7.125 29.71875 -7.125 C 34.320312 -7.125 38.015625 -8.625 40.796875 -11.625 C 42.765625 -13.738281 44.171875 -16.566406 45.015625 -20.109375 C 45.859375 -23.660156 46.28125 -28.546875 46.28125 -34.765625 L 46.28125 -60.640625 L 55.59375 -60.640625 L 55.59375 0 L 46.28125 0 L 46.28125 -9.4375 C 43.351562 -5.707031 40.476562 -3.019531 37.65625 -1.375 C 34.84375 0.269531 31.722656 1.09375 28.296875 1.09375 Z M 28.296875 1.09375 "/></g></g></g><g fill="#f6ecdf" fill-opacity="1"><g transform="translate(58.184004, 109.998214)"><g><path d="M 17.109375 0 L 7.78125 0 L 7.78125 -60.640625 L 17.109375 -60.640625 L 17.109375 -51.203125 C 20.179688 -55.148438 23.125 -57.890625 25.9375 -59.421875 C 28.75 -60.960938 31.800781 -61.734375 35.09375 -61.734375 C 38.96875 -61.734375 42.492188 -60.816406 45.671875 -58.984375 C 48.847656 -57.160156 50.914062 -54.347656 51.875 -50.546875 C 54.132812 -54.929688 56.960938 -57.890625 60.359375 -59.421875 C 63.765625 -60.960938 67.332031 -61.734375 71.0625 -61.734375 C 77.925781 -61.734375 83.003906 -59.773438 86.296875 -55.859375 C 89.585938 -51.953125 91.234375 -46.488281 91.234375 -39.46875 L 91.234375 0 L 81.90625 0 L 81.90625 -37.28125 C 81.90625 -42.539062 80.828125 -46.5625 78.671875 -49.34375 C 76.515625 -52.125 73.5 -53.515625 69.625 -53.515625 C 67.4375 -53.515625 65.535156 -53.144531 63.921875 -52.40625 C 62.316406 -51.675781 60.929688 -50.691406 59.765625 -49.453125 C 57.640625 -47.191406 56.175781 -44.25 55.375 -40.625 C 54.570312 -37.007812 54.171875 -32.609375 54.171875 -27.421875 L 54.171875 0 L 44.84375 0 L 44.84375 -37.28125 C 44.84375 -42.46875 43.707031 -46.46875 41.4375 -49.28125 C 39.175781 -52.101562 36.179688 -53.515625 32.453125 -53.515625 C 30.410156 -53.515625 28.566406 -53.128906 26.921875 -52.359375 C 25.273438 -51.585938 23.832031 -50.507812 22.59375 -49.125 C 20.757812 -47.082031 19.382812 -44.394531 18.46875 -41.0625 C 17.5625 -37.738281 17.109375 -33.191406 17.109375 -27.421875 Z M 17.109375 0 "/></g></g></g><g fill="#f6ecdf" fill-opacity="1"><g transform="translate(150.620457, 109.998214)"><g><path d="M 12.5 -71.0625 C 10.53125 -71.0625 8.847656 -71.734375 7.453125 -73.078125 C 6.066406 -74.429688 5.375 -76.0625 5.375 -77.96875 C 5.375 -79.863281 6.066406 -81.46875 7.453125 -82.78125 C 8.847656 -84.101562 10.53125 -84.765625 12.5 -84.765625 C 14.476562 -84.765625 16.160156 -84.101562 17.546875 -82.78125 C 18.929688 -81.46875 19.625 -79.863281 19.625 -77.96875 C 19.625 -76.0625 18.929688 -74.429688 17.546875 -73.078125 C 16.160156 -71.734375 14.476562 -71.0625 12.5 -71.0625 Z M 17.109375 0 L 7.78125 0 L 7.78125 -60.640625 L 17.109375 -60.640625 Z M 17.109375 0 "/></g></g></g><g fill="#f6ecdf" fill-opacity="1"><g transform="translate(169.370582, 109.998214)"><g><path d="M 17.109375 0 L 7.78125 0 L 7.78125 -60.640625 L 17.109375 -60.640625 L 17.109375 -51.203125 C 20.179688 -55.148438 23.125 -57.890625 25.9375 -59.421875 C 28.75 -60.960938 31.800781 -61.734375 35.09375 -61.734375 C 39.84375 -61.734375 43.640625 -60.835938 46.484375 -59.046875 C 49.335938 -57.253906 51.5 -54.972656 52.96875 -52.203125 C 54.425781 -49.492188 55.265625 -46.675781 55.484375 -43.75 C 55.703125 -40.820312 55.8125 -38.410156 55.8125 -36.515625 L 55.8125 0 L 46.5 0 L 46.5 -36.515625 C 46.5 -42.953125 45.328125 -47.484375 42.984375 -50.109375 C 40.941406 -52.378906 37.835938 -53.515625 33.671875 -53.515625 C 31.179688 -53.515625 29.019531 -53.109375 27.1875 -52.296875 C 25.363281 -51.492188 23.832031 -50.398438 22.59375 -49.015625 C 20.613281 -46.972656 19.203125 -44.160156 18.359375 -40.578125 C 17.523438 -36.992188 17.109375 -32.09375 17.109375 -25.875 Z M 17.109375 0 "/></g></g></g><g fill="#f6ecdf" fill-opacity="1"><g transform="translate(226.389359, 109.998214)"><g><path d="M 25 1.09375 C 18.9375 1.09375 14.128906 -0.4375 10.578125 -3.5 C 7.035156 -6.570312 5.265625 -10.78125 5.265625 -16.125 C 5.265625 -21.382812 7.238281 -25.550781 11.1875 -28.625 C 14.40625 -31.175781 19.046875 -33.078125 25.109375 -34.328125 L 46.71875 -38.484375 C 46.71875 -43.234375 45.472656 -46.851562 42.984375 -49.34375 C 40.203125 -52.125 36.472656 -53.515625 31.796875 -53.515625 C 28.066406 -53.515625 24.832031 -52.523438 22.09375 -50.546875 C 19.351562 -48.578125 17.617188 -45.875 16.890625 -42.4375 L 7.5625 -42.4375 C 8.289062 -46.675781 9.84375 -50.21875 12.21875 -53.0625 C 14.601562 -55.914062 17.507812 -58.070312 20.9375 -59.53125 C 24.375 -61 28.03125 -61.734375 31.90625 -61.734375 C 35.414062 -61.734375 38.722656 -61.222656 41.828125 -60.203125 C 44.941406 -59.179688 47.554688 -57.609375 49.671875 -55.484375 C 51.796875 -53.441406 53.296875 -51.140625 54.171875 -48.578125 C 55.046875 -46.015625 55.570312 -43.582031 55.75 -41.28125 C 55.9375 -38.976562 56.03125 -37.132812 56.03125 -35.75 L 56.03125 0 L 46.71875 0 L 46.71875 -9.546875 C 44.59375 -6.472656 42.140625 -4.09375 39.359375 -2.40625 C 37.316406 -1.164062 35.109375 -0.273438 32.734375 0.265625 C 30.359375 0.816406 27.78125 1.09375 25 1.09375 Z M 26.09375 -7.125 C 29.820312 -7.125 33.039062 -7.820312 35.75 -9.21875 C 40.0625 -11.476562 42.984375 -14.398438 44.515625 -17.984375 C 46.054688 -21.566406 46.828125 -25.878906 46.828125 -30.921875 L 27.078125 -26.96875 C 22.546875 -26.09375 19.222656 -24.671875 17.109375 -22.703125 C 15.421875 -21.015625 14.578125 -18.894531 14.578125 -16.34375 C 14.578125 -13.5625 15.617188 -11.328125 17.703125 -9.640625 C 19.785156 -7.960938 22.582031 -7.125 26.09375 -7.125 Z M 26.09375 -7.125 "/></g></g></g></g></g></g><g clip-path="url(#fca1013143)"><g transform="matrix(1, 0, 0, 1, 1, 159)"><g clip-path="url(#2b7ec6a837)"><g fill="#f6ecdf" fill-opacity="1"><g transform="translate(0.00000169, 38.904362)"><g><path d="M 4.15625 0 L 0.546875 0 L 11.453125 -29.609375 L 15.484375 -29.609375 L 26.390625 0 L 22.78125 0 L 20.1875 -7.265625 L 6.75 -7.265625 Z M 13.46875 -25.96875 L 7.953125 -10.4375 L 18.984375 -10.4375 Z M 13.46875 -25.96875 "/></g></g></g><g fill="#f6ecdf" fill-opacity="1"><g transform="translate(24.761971, 38.904362)"><g><path d="M 6.09375 0 L 2.796875 0 L 2.796875 -29.609375 L 6.09375 -29.609375 L 6.09375 -12.890625 L 15.53125 -21.46875 L 20.109375 -21.46875 L 9.59375 -12.03125 L 21.078125 0 L 16.578125 0 L 6.09375 -11.21875 Z M 6.09375 0 "/></g></g></g><g fill="#f6ecdf" fill-opacity="1"><g transform="translate(44.090195, 38.904362)"><g><path d="M 8.84375 0.390625 C 6.695312 0.390625 4.992188 -0.148438 3.734375 -1.234375 C 2.484375 -2.328125 1.859375 -3.816406 1.859375 -5.703125 C 1.859375 -7.566406 2.554688 -9.039062 3.953125 -10.125 C 5.097656 -11.03125 6.742188 -11.703125 8.890625 -12.140625 L 16.53125 -13.625 C 16.53125 -15.300781 16.09375 -16.582031 15.21875 -17.46875 C 14.226562 -18.445312 12.90625 -18.9375 11.25 -18.9375 C 9.9375 -18.9375 8.789062 -18.585938 7.8125 -17.890625 C 6.84375 -17.191406 6.234375 -16.234375 5.984375 -15.015625 L 2.671875 -15.015625 C 2.929688 -16.515625 3.484375 -17.769531 4.328125 -18.78125 C 5.171875 -19.789062 6.195312 -20.550781 7.40625 -21.0625 C 8.625 -21.582031 9.921875 -21.84375 11.296875 -21.84375 C 12.535156 -21.84375 13.703125 -21.660156 14.796875 -21.296875 C 15.898438 -20.941406 16.828125 -20.390625 17.578125 -19.640625 C 18.328125 -18.910156 18.859375 -18.09375 19.171875 -17.1875 C 19.484375 -16.28125 19.671875 -15.421875 19.734375 -14.609375 C 19.796875 -13.796875 19.828125 -13.144531 19.828125 -12.65625 L 19.828125 0 L 16.53125 0 L 16.53125 -3.375 C 15.78125 -2.289062 14.914062 -1.453125 13.9375 -0.859375 C 13.207031 -0.410156 12.421875 -0.09375 11.578125 0.09375 C 10.742188 0.289062 9.832031 0.390625 8.84375 0.390625 Z M 9.234375 -2.515625 C 10.554688 -2.515625 11.695312 -2.765625 12.65625 -3.265625 C 14.175781 -4.066406 15.207031 -5.097656 15.75 -6.359375 C 16.300781 -7.628906 16.578125 -9.15625 16.578125 -10.9375 L 9.59375 -9.546875 C 7.988281 -9.234375 6.8125 -8.726562 6.0625 -8.03125 C 5.457031 -7.4375 5.15625 -6.6875 5.15625 -5.78125 C 5.15625 -4.800781 5.523438 -4.007812 6.265625 -3.40625 C 7.003906 -2.8125 7.992188 -2.515625 9.234375 -2.515625 Z M 9.234375 -2.515625 "/></g></g></g><g fill="#f6ecdf" fill-opacity="1"><g transform="translate(64.272296, 38.904362)"><g><path d="M 11.484375 0.390625 C 9.566406 0.390625 7.890625 -0.078125 6.453125 -1.015625 C 5.023438 -1.960938 3.914062 -3.269531 3.125 -4.9375 C 2.332031 -6.613281 1.9375 -8.539062 1.9375 -10.71875 C 1.9375 -12.914062 2.332031 -14.847656 3.125 -16.515625 C 3.914062 -18.179688 5.023438 -19.484375 6.453125 -20.421875 C 7.890625 -21.367188 9.566406 -21.84375 11.484375 -21.84375 C 12.929688 -21.84375 14.1875 -21.582031 15.25 -21.0625 C 16.3125 -20.550781 17.398438 -19.570312 18.515625 -18.125 L 18.515625 -29.609375 L 21.8125 -29.609375 L 21.8125 0 L 18.515625 0 L 18.515625 -3.34375 C 17.429688 -1.9375 16.359375 -0.960938 15.296875 -0.421875 C 14.234375 0.117188 12.960938 0.390625 11.484375 0.390625 Z M 11.796875 -2.515625 C 13.140625 -2.515625 14.320312 -2.867188 15.34375 -3.578125 C 16.375 -4.296875 17.175781 -5.269531 17.75 -6.5 C 18.332031 -7.726562 18.625 -9.132812 18.625 -10.71875 C 18.625 -12.320312 18.332031 -13.738281 17.75 -14.96875 C 17.175781 -16.195312 16.375 -17.164062 15.34375 -17.875 C 14.320312 -18.582031 13.140625 -18.9375 11.796875 -18.9375 C 10.453125 -18.9375 9.285156 -18.570312 8.296875 -17.84375 C 7.316406 -17.125 6.5625 -16.148438 6.03125 -14.921875 C 5.5 -13.691406 5.234375 -12.289062 5.234375 -10.71875 C 5.234375 -9.164062 5.5 -7.773438 6.03125 -6.546875 C 6.5625 -5.316406 7.316406 -4.335938 8.296875 -3.609375 C 9.285156 -2.878906 10.453125 -2.515625 11.796875 -2.515625 Z M 11.796875 -2.515625 "/></g></g></g><g fill="#f6ecdf" fill-opacity="1"><g transform="translate(86.705519, 38.904362)"><g><path d="M 12.296875 0.390625 C 10.253906 0.390625 8.441406 -0.09375 6.859375 -1.0625 C 5.285156 -2.03125 4.054688 -3.347656 3.171875 -5.015625 C 2.296875 -6.691406 1.859375 -8.578125 1.859375 -10.671875 C 1.859375 -12.609375 2.257812 -14.429688 3.0625 -16.140625 C 3.863281 -17.847656 5.039062 -19.222656 6.59375 -20.265625 C 8.144531 -21.316406 10.019531 -21.84375 12.21875 -21.84375 C 14.03125 -21.84375 15.71875 -21.441406 17.28125 -20.640625 C 18.851562 -19.835938 20.128906 -18.644531 21.109375 -17.0625 C 22.097656 -15.488281 22.59375 -13.550781 22.59375 -11.25 L 22.59375 -10.09375 L 5.125 -10.09375 C 5.175781 -9.34375 5.316406 -8.628906 5.546875 -7.953125 C 6.085938 -6.296875 6.953125 -4.972656 8.140625 -3.984375 C 9.335938 -3.003906 10.710938 -2.515625 12.265625 -2.515625 C 13.890625 -2.515625 15.242188 -2.945312 16.328125 -3.8125 C 17.421875 -4.6875 18.203125 -5.71875 18.671875 -6.90625 L 22.203125 -6.90625 C 21.765625 -5.5625 21.101562 -4.335938 20.21875 -3.234375 C 19.34375 -2.140625 18.25 -1.257812 16.9375 -0.59375 C 15.632812 0.0625 14.085938 0.390625 12.296875 0.390625 Z M 5.4375 -13 L 19.0625 -13 C 19.03125 -13.363281 18.972656 -13.722656 18.890625 -14.078125 C 18.816406 -14.441406 18.71875 -14.78125 18.59375 -15.09375 C 18.019531 -16.34375 17.171875 -17.296875 16.046875 -17.953125 C 14.921875 -18.609375 13.671875 -18.9375 12.296875 -18.9375 C 10.878906 -18.9375 9.632812 -18.597656 8.5625 -17.921875 C 7.488281 -17.253906 6.65625 -16.3125 6.0625 -15.09375 C 5.90625 -14.757812 5.773438 -14.410156 5.671875 -14.046875 C 5.566406 -13.679688 5.488281 -13.332031 5.4375 -13 Z M 5.4375 -13 "/></g></g></g><g fill="#f6ecdf" fill-opacity="1"><g transform="translate(108.944684, 38.904362)"><g><path d="M 6.0625 0 L 2.75 0 L 2.75 -21.46875 L 6.0625 -21.46875 L 6.0625 -18.125 C 7.144531 -19.519531 8.179688 -20.488281 9.171875 -21.03125 C 10.171875 -21.570312 11.253906 -21.84375 12.421875 -21.84375 C 13.796875 -21.84375 15.046875 -21.519531 16.171875 -20.875 C 17.296875 -20.226562 18.023438 -19.234375 18.359375 -17.890625 C 19.160156 -19.441406 20.160156 -20.488281 21.359375 -21.03125 C 22.566406 -21.570312 23.832031 -21.84375 25.15625 -21.84375 C 27.582031 -21.84375 29.378906 -21.148438 30.546875 -19.765625 C 31.710938 -18.390625 32.296875 -16.457031 32.296875 -13.96875 L 32.296875 0 L 29 0 L 29 -13.203125 C 29 -15.054688 28.613281 -16.472656 27.84375 -17.453125 C 27.082031 -18.441406 26.015625 -18.9375 24.640625 -18.9375 C 23.867188 -18.9375 23.195312 -18.804688 22.625 -18.546875 C 22.0625 -18.296875 21.570312 -17.945312 21.15625 -17.5 C 20.40625 -16.695312 19.882812 -15.65625 19.59375 -14.375 C 19.3125 -13.09375 19.171875 -11.535156 19.171875 -9.703125 L 19.171875 0 L 15.875 0 L 15.875 -13.203125 C 15.875 -15.035156 15.472656 -16.445312 14.671875 -17.4375 C 13.867188 -18.4375 12.804688 -18.9375 11.484375 -18.9375 C 10.765625 -18.9375 10.113281 -18.800781 9.53125 -18.53125 C 8.945312 -18.257812 8.4375 -17.878906 8 -17.390625 C 7.351562 -16.660156 6.867188 -15.707031 6.546875 -14.53125 C 6.222656 -13.351562 6.0625 -11.742188 6.0625 -9.703125 Z M 6.0625 0 "/></g></g></g><g fill="#f6ecdf" fill-opacity="1"><g transform="translate(141.663204, 38.904362)"><g><path d="M 4.421875 -25.15625 C 3.722656 -25.15625 3.128906 -25.394531 2.640625 -25.875 C 2.148438 -26.351562 1.90625 -26.925781 1.90625 -27.59375 C 1.90625 -28.269531 2.148438 -28.835938 2.640625 -29.296875 C 3.128906 -29.765625 3.722656 -30 4.421875 -30 C 5.117188 -30 5.710938 -29.765625 6.203125 -29.296875 C 6.703125 -28.835938 6.953125 -28.269531 6.953125 -27.59375 C 6.953125 -26.925781 6.703125 -26.351562 6.203125 -25.875 C 5.710938 -25.394531 5.117188 -25.15625 4.421875 -25.15625 Z M 6.0625 0 L 2.75 0 L 2.75 -21.46875 L 6.0625 -21.46875 Z M 6.0625 0 "/></g></g></g></g></g></g><g clip-path="url(#40aa97e7f7)"><path fill="#f6ecdf" d="M 33.261719 103.632812 C 21.886719 103.632812 15.015625 91.050781 21.160156 81.484375 L 61.195312 19.144531 C 62.277344 17.457031 62.855469 15.492188 62.855469 13.488281 C 62.855469 7.703125 58.167969 3.015625 52.382812 3.015625 L 14.722656 3.015625 C 7.140625 3.015625 0.992188 9.164062 0.992188 16.746094 L 0.992188 99.15625 C 0.992188 106.738281 7.140625 112.886719 14.722656 112.886719 L 69.183594 112.886719 C 76.761719 112.886719 82.90625 106.746094 82.914062 99.167969 L 82.929688 74.703125 C 82.9375 65.617188 71.085938 62.132812 66.175781 69.777344 L 50.46875 94.230469 C 46.707031 100.089844 40.222656 103.632812 33.261719 103.632812 Z M 33.261719 103.632812 " fill-opacity="1" fill-rule="nonzero"/></g></g></g></svg>