<svg xmlns="http://www.w3.org/2000/svg" xmlns:xlink="http://www.w3.org/1999/xlink" width="1800" zoomAndPan="magnify" viewBox="0 0 1350 1124.99995" height="1500" preserveAspectRatio="xMidYMid meet" version="1.0"><defs><g/><clipPath id="4836941a92"><path d="M 0 0 L 821 0 L 821 896 L 0 896 Z M 0 0 " clip-rule="nonzero"/></clipPath><clipPath id="d83bb71d47"><path d="M 820.503906 327.351562 L 405.691406 895.542969 L -356.949219 338.773438 L 57.863281 -229.417969 Z M 820.503906 327.351562 " clip-rule="nonzero"/></clipPath><clipPath id="8866127f95"><path d="M 0 0 L 774 0 L 774 849 L 0 849 Z M 0 0 " clip-rule="nonzero"/></clipPath><clipPath id="cf3774190c"><path d="M 820.503906 327.351562 L 405.691406 895.542969 L -356.949219 338.773438 L 57.863281 -229.417969 Z M 820.503906 327.351562 " clip-rule="nonzero"/></clipPath><clipPath id="f4ea189d66"><path d="M 57.828125 -229.445312 L -356.984375 338.746094 L 405.652344 895.515625 L 820.464844 327.324219 Z M 57.828125 -229.445312 " clip-rule="nonzero"/></clipPath><clipPath id="887efb44d7"><rect x="0" width="821" y="0" height="896"/></clipPath><clipPath id="e898650820"><path d="M 583.335938 680.59375 L 681.585938 680.59375 L 681.585938 811.84375 L 583.335938 811.84375 Z M 583.335938 680.59375 " clip-rule="nonzero"/></clipPath><clipPath id="597657ce1f"><rect x="0" width="355" y="0" height="163"/></clipPath></defs><rect x="-135" width="1620" fill="#ffffff" y="-112.499995" height="1349.99994" fill-opacity="1"/><rect x="-135" width="1620" fill="#fdebdc" y="-112.499995" height="1349.99994" fill-opacity="1"/><g clip-path="url(#4836941a92)"><g clip-path="url(#d83bb71d47)"><g transform="matrix(1, 0, 0, 1, 0, -0.000000000000114957)"><g clip-path="url(#887efb44d7)"><g clip-path="url(#8866127f95)"><g clip-path="url(#cf3774190c)"><g clip-path="url(#f4ea189d66)"><path fill="#c97e5c" d="M 592.667969 503.933594 C 650.242188 425.074219 597.800781 313.75 500.335938 307.921875 L -134.554688 269.941406 C -151.746094 268.914062 -168.28125 262.96875 -182.191406 252.8125 C -222.292969 223.539062 -231.066406 167.300781 -201.792969 127.199219 L -11.15625 -133.925781 C 27.230469 -186.507812 100.972656 -198.011719 153.554688 -159.625 L 724.984375 257.550781 C 777.5625 295.933594 789.070312 369.675781 750.683594 422.257812 L 475.007812 799.863281 C 436.640625 852.417969 362.949219 863.945312 310.367188 825.613281 L 140.640625 701.890625 C 77.609375 655.941406 113.449219 556.144531 191.3125 560.796875 L 440.382812 575.675781 C 500.046875 579.242188 557.425781 552.210938 592.667969 503.933594 Z M 592.667969 503.933594 " fill-opacity="1" fill-rule="nonzero"/></g></g></g></g></g></g></g><g fill="#c97e5c" fill-opacity="1"><g transform="translate(579.108798, 881.263728)"><g><path d="M 13.03125 0 L 4.171875 0 L 4.171875 -46.875 L 13.03125 -46.875 L 13.03125 -27.46875 L 33.109375 -27.46875 L 33.109375 -46.875 L 41.96875 -46.875 L 41.96875 0 L 33.109375 0 L 33.109375 -19.53125 L 13.03125 -19.53125 Z M 13.03125 0 "/></g></g></g><g fill="#c97e5c" fill-opacity="1"><g transform="translate(621.863715, 881.263728)"><g><path d="M 19.90625 0.671875 C 16.382812 0.671875 13.300781 -0.09375 10.65625 -1.625 C 8.019531 -3.164062 5.972656 -5.265625 4.515625 -7.921875 C 3.054688 -10.585938 2.328125 -13.617188 2.328125 -17.015625 C 2.328125 -19.265625 2.675781 -21.472656 3.375 -23.640625 C 4.070312 -25.816406 5.132812 -27.773438 6.5625 -29.515625 C 8 -31.253906 9.800781 -32.632812 11.96875 -33.65625 C 14.144531 -34.6875 16.707031 -35.203125 19.65625 -35.203125 C 21.875 -35.203125 24.015625 -34.851562 26.078125 -34.15625 C 28.148438 -33.457031 30.003906 -32.378906 31.640625 -30.921875 C 33.273438 -29.472656 34.570312 -27.625 35.53125 -25.375 C 36.5 -23.125 36.984375 -20.441406 36.984375 -17.328125 L 36.984375 -15.546875 L 10.9375 -15.546875 C 11.019531 -14.804688 11.179688 -14.078125 11.421875 -13.359375 C 11.671875 -12.640625 11.9375 -12.015625 12.21875 -11.484375 C 13.039062 -9.890625 14.140625 -8.648438 15.515625 -7.765625 C 16.890625 -6.890625 18.457031 -6.453125 20.21875 -6.453125 C 22.175781 -6.453125 23.820312 -6.960938 25.15625 -7.984375 C 26.488281 -9.003906 27.421875 -10.210938 27.953125 -11.609375 L 36.4375 -11.609375 C 35.78125 -9.398438 34.734375 -7.363281 33.296875 -5.5 C 31.867188 -3.632812 30.046875 -2.140625 27.828125 -1.015625 C 25.617188 0.109375 22.976562 0.671875 19.90625 0.671875 Z M 11.296875 -21.75 L 28.5 -21.75 C 28.46875 -22.195312 28.359375 -22.707031 28.171875 -23.28125 C 27.984375 -23.851562 27.664062 -24.40625 27.21875 -24.9375 C 26.4375 -26.164062 25.398438 -27.085938 24.109375 -27.703125 C 22.816406 -28.316406 21.414062 -28.625 19.90625 -28.625 C 18.382812 -28.625 17 -28.316406 15.75 -27.703125 C 14.507812 -27.085938 13.476562 -26.164062 12.65625 -24.9375 C 12.207031 -24.40625 11.890625 -23.851562 11.703125 -23.28125 C 11.515625 -22.707031 11.378906 -22.195312 11.296875 -21.75 Z M 11.296875 -21.75 "/></g></g></g><g fill="#c97e5c" fill-opacity="1"><g transform="translate(657.738503, 881.263728)"><g><path d="M 12.046875 0 L 3.75 0 L 3.75 -34.46875 L 12.046875 -34.46875 L 12.046875 -30.34375 C 13.347656 -32.144531 14.804688 -33.40625 16.421875 -34.125 C 18.046875 -34.84375 19.863281 -35.203125 21.875 -35.203125 L 22.859375 -35.203125 L 22.859375 -27.21875 L 20.953125 -27.21875 C 19.554688 -27.21875 18.351562 -27.03125 17.34375 -26.65625 C 16.34375 -26.289062 15.5 -25.78125 14.8125 -25.125 C 13.90625 -24.226562 13.21875 -23.050781 12.75 -21.59375 C 12.28125 -20.144531 12.046875 -18.269531 12.046875 -15.96875 Z M 12.046875 0 "/></g></g></g><g fill="#c97e5c" fill-opacity="1"><g transform="translate(678.31729, 881.263728)"><g/></g></g><g fill="#c97e5c" fill-opacity="1"><g transform="translate(691.340219, 881.263728)"><g><path d="M 36.609375 0 L 1.65625 0 L 1.65625 -6.078125 L 25.4375 -38.953125 L 3.015625 -38.953125 L 3.015625 -46.875 L 36.5625 -46.875 L 36.5625 -40.484375 L 13.140625 -7.921875 L 36.609375 -7.921875 Z M 36.609375 0 "/></g></g></g><g fill="#c97e5c" fill-opacity="1"><g transform="translate(726.477846, 881.263728)"><g><path d="M 13.703125 0.671875 C 10.460938 0.671875 7.765625 -0.195312 5.609375 -1.9375 C 3.460938 -3.675781 2.390625 -6.1875 2.390625 -9.46875 C 2.390625 -11.300781 2.75 -12.863281 3.46875 -14.15625 C 4.1875 -15.445312 5.140625 -16.503906 6.328125 -17.328125 C 7.429688 -18.109375 8.6875 -18.722656 10.09375 -19.171875 C 11.507812 -19.617188 12.9375 -19.988281 14.375 -20.28125 L 24.640625 -22.171875 C 24.554688 -24.304688 24.003906 -25.925781 22.984375 -27.03125 C 21.953125 -28.132812 20.414062 -28.6875 18.375 -28.6875 C 16.8125 -28.6875 15.425781 -28.222656 14.21875 -27.296875 C 13.007812 -26.378906 12.242188 -25.101562 11.921875 -23.46875 L 3.6875 -23.46875 C 4.09375 -26.175781 5.03125 -28.390625 6.5 -30.109375 C 7.976562 -31.828125 9.769531 -33.101562 11.875 -33.9375 C 13.988281 -34.78125 16.175781 -35.203125 18.4375 -35.203125 C 20.4375 -35.203125 22.359375 -34.914062 24.203125 -34.34375 C 26.046875 -33.769531 27.601562 -32.890625 28.875 -31.703125 C 30.226562 -30.515625 31.191406 -29.148438 31.765625 -27.609375 C 32.335938 -26.078125 32.675781 -24.476562 32.78125 -22.8125 C 32.882812 -21.15625 32.9375 -19.53125 32.9375 -17.9375 L 32.9375 0 L 24.640625 0 L 24.640625 -4.671875 C 23.773438 -3.148438 22.726562 -2.003906 21.5 -1.234375 C 20.4375 -0.535156 19.238281 -0.046875 17.90625 0.234375 C 16.570312 0.523438 15.171875 0.671875 13.703125 0.671875 Z M 15.734375 -5.84375 C 17.367188 -5.84375 18.84375 -6.164062 20.15625 -6.8125 C 21.957031 -7.71875 23.175781 -8.925781 23.8125 -10.4375 C 24.445312 -11.957031 24.785156 -13.84375 24.828125 -16.09375 L 16.59375 -14.4375 C 15.40625 -14.226562 14.429688 -13.957031 13.671875 -13.625 C 12.910156 -13.300781 12.285156 -12.914062 11.796875 -12.46875 C 11.460938 -12.144531 11.191406 -11.753906 10.984375 -11.296875 C 10.785156 -10.847656 10.6875 -10.335938 10.6875 -9.765625 C 10.6875 -8.492188 11.164062 -7.519531 12.125 -6.84375 C 13.09375 -6.175781 14.296875 -5.84375 15.734375 -5.84375 Z M 15.734375 -5.84375 "/></g></g></g><g fill="#c97e5c" fill-opacity="1"><g transform="translate(759.342574, 881.263728)"><g><path d="M 12.046875 0 L 3.75 0 L 3.75 -34.46875 L 12.046875 -34.46875 L 12.046875 -30.109375 C 13.390625 -31.992188 14.847656 -33.3125 16.421875 -34.0625 C 18.003906 -34.820312 19.675781 -35.203125 21.4375 -35.203125 C 23.695312 -35.203125 25.632812 -34.738281 27.25 -33.8125 C 28.863281 -32.894531 29.9375 -31.515625 30.46875 -29.671875 C 31.613281 -31.597656 33.023438 -33 34.703125 -33.875 C 36.390625 -34.757812 38.359375 -35.203125 40.609375 -35.203125 C 44.503906 -35.203125 47.363281 -34.066406 49.1875 -31.796875 C 51.007812 -29.523438 51.921875 -26.460938 51.921875 -22.609375 L 51.921875 0 L 43.625 0 L 43.625 -21.5625 C 43.625 -23.9375 43.160156 -25.664062 42.234375 -26.75 C 41.316406 -27.84375 39.976562 -28.390625 38.21875 -28.390625 C 37.3125 -28.390625 36.507812 -28.234375 35.8125 -27.921875 C 35.125 -27.617188 34.550781 -27.21875 34.09375 -26.71875 C 33.320312 -25.820312 32.78125 -24.6875 32.46875 -23.3125 C 32.164062 -21.9375 32.015625 -20.25 32.015625 -18.25 L 32.015625 0 L 23.71875 0 L 23.71875 -21.5625 C 23.71875 -23.894531 23.234375 -25.613281 22.265625 -26.71875 C 21.304688 -27.832031 19.96875 -28.390625 18.25 -28.390625 C 16.53125 -28.390625 15.132812 -27.796875 14.0625 -26.609375 C 13.414062 -25.828125 12.914062 -24.789062 12.5625 -23.5 C 12.21875 -22.207031 12.046875 -20.457031 12.046875 -18.25 Z M 12.046875 0 "/></g></g></g><g fill="#c97e5c" fill-opacity="1"><g transform="translate(811.373396, 881.263728)"><g><path d="M 13.703125 0.671875 C 10.460938 0.671875 7.765625 -0.195312 5.609375 -1.9375 C 3.460938 -3.675781 2.390625 -6.1875 2.390625 -9.46875 C 2.390625 -11.300781 2.75 -12.863281 3.46875 -14.15625 C 4.1875 -15.445312 5.140625 -16.503906 6.328125 -17.328125 C 7.429688 -18.109375 8.6875 -18.722656 10.09375 -19.171875 C 11.507812 -19.617188 12.9375 -19.988281 14.375 -20.28125 L 24.640625 -22.171875 C 24.554688 -24.304688 24.003906 -25.925781 22.984375 -27.03125 C 21.953125 -28.132812 20.414062 -28.6875 18.375 -28.6875 C 16.8125 -28.6875 15.425781 -28.222656 14.21875 -27.296875 C 13.007812 -26.378906 12.242188 -25.101562 11.921875 -23.46875 L 3.6875 -23.46875 C 4.09375 -26.175781 5.03125 -28.390625 6.5 -30.109375 C 7.976562 -31.828125 9.769531 -33.101562 11.875 -33.9375 C 13.988281 -34.78125 16.175781 -35.203125 18.4375 -35.203125 C 20.4375 -35.203125 22.359375 -34.914062 24.203125 -34.34375 C 26.046875 -33.769531 27.601562 -32.890625 28.875 -31.703125 C 30.226562 -30.515625 31.191406 -29.148438 31.765625 -27.609375 C 32.335938 -26.078125 32.675781 -24.476562 32.78125 -22.8125 C 32.882812 -21.15625 32.9375 -19.53125 32.9375 -17.9375 L 32.9375 0 L 24.640625 0 L 24.640625 -4.671875 C 23.773438 -3.148438 22.726562 -2.003906 21.5 -1.234375 C 20.4375 -0.535156 19.238281 -0.046875 17.90625 0.234375 C 16.570312 0.523438 15.171875 0.671875 13.703125 0.671875 Z M 15.734375 -5.84375 C 17.367188 -5.84375 18.84375 -6.164062 20.15625 -6.8125 C 21.957031 -7.71875 23.175781 -8.925781 23.8125 -10.4375 C 24.445312 -11.957031 24.785156 -13.84375 24.828125 -16.09375 L 16.59375 -14.4375 C 15.40625 -14.226562 14.429688 -13.957031 13.671875 -13.625 C 12.910156 -13.300781 12.285156 -12.914062 11.796875 -12.46875 C 11.460938 -12.144531 11.191406 -11.753906 10.984375 -11.296875 C 10.785156 -10.847656 10.6875 -10.335938 10.6875 -9.765625 C 10.6875 -8.492188 11.164062 -7.519531 12.125 -6.84375 C 13.09375 -6.175781 14.296875 -5.84375 15.734375 -5.84375 Z M 15.734375 -5.84375 "/></g></g></g><g fill="#c97e5c" fill-opacity="1"><g transform="translate(844.238124, 881.263728)"><g><path d="M 12.046875 0 L 3.75 0 L 3.75 -34.46875 L 12.046875 -34.46875 L 12.046875 -30.109375 C 13.429688 -32.023438 14.878906 -33.351562 16.390625 -34.09375 C 17.910156 -34.832031 19.59375 -35.203125 21.4375 -35.203125 C 24.59375 -35.203125 26.976562 -34.640625 28.59375 -33.515625 C 30.21875 -32.390625 31.414062 -31.023438 32.1875 -29.421875 C 32.882812 -27.910156 33.296875 -26.363281 33.421875 -24.78125 C 33.546875 -23.207031 33.609375 -21.5625 33.609375 -19.84375 L 33.609375 0 L 25.375 0 L 25.375 -19.96875 C 25.375 -21.726562 25.226562 -23.148438 24.9375 -24.234375 C 24.65625 -25.316406 24.226562 -26.1875 23.65625 -26.84375 C 22.664062 -27.875 21.210938 -28.390625 19.296875 -28.390625 C 16.960938 -28.390625 15.21875 -27.691406 14.0625 -26.296875 C 13.375 -25.472656 12.863281 -24.382812 12.53125 -23.03125 C 12.207031 -21.6875 12.046875 -19.867188 12.046875 -17.578125 Z M 12.046875 0 "/></g></g></g><g fill="#c97e5c" fill-opacity="1"><g transform="translate(877.962853, 881.263728)"><g/></g></g><g fill="#c97e5c" fill-opacity="1"><g transform="translate(890.985793, 881.263728)"><g><path d="M 26.171875 0 L 16.890625 0 L 16.890625 -18.375 L -0.1875 -46.875 L 10.140625 -46.875 L 21.5 -26.96875 L 32.9375 -46.875 L 43.1875 -46.875 L 26.171875 -18.375 Z M 26.171875 0 "/></g></g></g><g fill="#c97e5c" fill-opacity="1"><g transform="translate(930.546368, 881.263728)"><g><path d="M 13.703125 0.671875 C 10.460938 0.671875 7.765625 -0.195312 5.609375 -1.9375 C 3.460938 -3.675781 2.390625 -6.1875 2.390625 -9.46875 C 2.390625 -11.300781 2.75 -12.863281 3.46875 -14.15625 C 4.1875 -15.445312 5.140625 -16.503906 6.328125 -17.328125 C 7.429688 -18.109375 8.6875 -18.722656 10.09375 -19.171875 C 11.507812 -19.617188 12.9375 -19.988281 14.375 -20.28125 L 24.640625 -22.171875 C 24.554688 -24.304688 24.003906 -25.925781 22.984375 -27.03125 C 21.953125 -28.132812 20.414062 -28.6875 18.375 -28.6875 C 16.8125 -28.6875 15.425781 -28.222656 14.21875 -27.296875 C 13.007812 -26.378906 12.242188 -25.101562 11.921875 -23.46875 L 3.6875 -23.46875 C 4.09375 -26.175781 5.03125 -28.390625 6.5 -30.109375 C 7.976562 -31.828125 9.769531 -33.101562 11.875 -33.9375 C 13.988281 -34.78125 16.175781 -35.203125 18.4375 -35.203125 C 20.4375 -35.203125 22.359375 -34.914062 24.203125 -34.34375 C 26.046875 -33.769531 27.601562 -32.890625 28.875 -31.703125 C 30.226562 -30.515625 31.191406 -29.148438 31.765625 -27.609375 C 32.335938 -26.078125 32.675781 -24.476562 32.78125 -22.8125 C 32.882812 -21.15625 32.9375 -19.53125 32.9375 -17.9375 L 32.9375 0 L 24.640625 0 L 24.640625 -4.671875 C 23.773438 -3.148438 22.726562 -2.003906 21.5 -1.234375 C 20.4375 -0.535156 19.238281 -0.046875 17.90625 0.234375 C 16.570312 0.523438 15.171875 0.671875 13.703125 0.671875 Z M 15.734375 -5.84375 C 17.367188 -5.84375 18.84375 -6.164062 20.15625 -6.8125 C 21.957031 -7.71875 23.175781 -8.925781 23.8125 -10.4375 C 24.445312 -11.957031 24.785156 -13.84375 24.828125 -16.09375 L 16.59375 -14.4375 C 15.40625 -14.226562 14.429688 -13.957031 13.671875 -13.625 C 12.910156 -13.300781 12.285156 -12.914062 11.796875 -12.46875 C 11.460938 -12.144531 11.191406 -11.753906 10.984375 -11.296875 C 10.785156 -10.847656 10.6875 -10.335938 10.6875 -9.765625 C 10.6875 -8.492188 11.164062 -7.519531 12.125 -6.84375 C 13.09375 -6.175781 14.296875 -5.84375 15.734375 -5.84375 Z M 15.734375 -5.84375 "/></g></g></g><g fill="#c97e5c" fill-opacity="1"><g transform="translate(963.411073, 881.263728)"><g><path d="M 12.046875 0 L 3.75 0 L 3.75 -34.46875 L 12.046875 -34.46875 L 12.046875 -30.109375 C 13.429688 -32.023438 14.878906 -33.351562 16.390625 -34.09375 C 17.910156 -34.832031 19.59375 -35.203125 21.4375 -35.203125 C 24.59375 -35.203125 26.976562 -34.640625 28.59375 -33.515625 C 30.21875 -32.390625 31.414062 -31.023438 32.1875 -29.421875 C 32.882812 -27.910156 33.296875 -26.363281 33.421875 -24.78125 C 33.546875 -23.207031 33.609375 -21.5625 33.609375 -19.84375 L 33.609375 0 L 25.375 0 L 25.375 -19.96875 C 25.375 -21.726562 25.226562 -23.148438 24.9375 -24.234375 C 24.65625 -25.316406 24.226562 -26.1875 23.65625 -26.84375 C 22.664062 -27.875 21.210938 -28.390625 19.296875 -28.390625 C 16.960938 -28.390625 15.21875 -27.691406 14.0625 -26.296875 C 13.375 -25.472656 12.863281 -24.382812 12.53125 -23.03125 C 12.207031 -21.6875 12.046875 -19.867188 12.046875 -17.578125 Z M 12.046875 0 "/></g></g></g><g fill="#c97e5c" fill-opacity="1"><g transform="translate(997.135848, 881.263728)"><g><path d="M 12.046875 0 L 3.75 0 L 3.75 -34.46875 L 12.046875 -34.46875 Z M 12.046875 0 "/></g></g></g><g fill="#c97e5c" fill-opacity="1"><g transform="translate(1009.544492, 881.263728)"><g><path d="M 12.046875 0 L 3.75 0 L 3.75 -34.46875 L 12.046875 -34.46875 L 12.046875 -30.109375 C 13.429688 -32.023438 14.878906 -33.351562 16.390625 -34.09375 C 17.910156 -34.832031 19.59375 -35.203125 21.4375 -35.203125 C 24.59375 -35.203125 26.976562 -34.640625 28.59375 -33.515625 C 30.21875 -32.390625 31.414062 -31.023438 32.1875 -29.421875 C 32.882812 -27.910156 33.296875 -26.363281 33.421875 -24.78125 C 33.546875 -23.207031 33.609375 -21.5625 33.609375 -19.84375 L 33.609375 0 L 25.375 0 L 25.375 -19.96875 C 25.375 -21.726562 25.226562 -23.148438 24.9375 -24.234375 C 24.65625 -25.316406 24.226562 -26.1875 23.65625 -26.84375 C 22.664062 -27.875 21.210938 -28.390625 19.296875 -28.390625 C 16.960938 -28.390625 15.21875 -27.691406 14.0625 -26.296875 C 13.375 -25.472656 12.863281 -24.382812 12.53125 -23.03125 C 12.207031 -21.6875 12.046875 -19.867188 12.046875 -17.578125 Z M 12.046875 0 "/></g></g></g><g fill="#c97e5c" fill-opacity="1"><g transform="translate(1043.269221, 881.263728)"><g><path d="M 12.046875 0 L 3.75 0 L 3.75 -34.46875 L 12.046875 -34.46875 Z M 12.046875 0 "/></g></g></g><g fill="#c97e5c" fill-opacity="1"><g transform="translate(1055.677866, 881.263728)"><g><path d="M 31.890625 0 L 1.90625 0 L 1.90625 -5.46875 L 21.5 -27.765625 L 2.953125 -27.765625 L 2.953125 -34.46875 L 31.953125 -34.46875 L 31.953125 -28.5 L 13.03125 -6.703125 L 31.890625 -6.703125 Z M 31.890625 0 "/></g></g></g><g fill="#c97e5c" fill-opacity="1"><g transform="translate(1086.331138, 881.263728)"><g><path d="M 17.625 0.671875 C 14.632812 0.671875 11.992188 -0.0820312 9.703125 -1.59375 C 7.410156 -3.113281 5.628906 -5.222656 4.359375 -7.921875 C 3.085938 -10.628906 2.453125 -13.742188 2.453125 -17.265625 C 2.453125 -20.785156 3.085938 -23.894531 4.359375 -26.59375 C 5.628906 -29.300781 7.410156 -31.410156 9.703125 -32.921875 C 11.992188 -34.441406 14.632812 -35.203125 17.625 -35.203125 C 19.675781 -35.203125 21.46875 -34.84375 23 -34.125 C 24.539062 -33.40625 26.007812 -32.066406 27.40625 -30.109375 L 27.40625 -46.875 L 35.6875 -46.875 L 35.6875 0 L 27.40625 0 L 27.40625 -4.359375 C 26.007812 -2.429688 24.539062 -1.109375 23 -0.390625 C 21.46875 0.316406 19.675781 0.671875 17.625 0.671875 Z M 19.53125 -6.453125 C 22.195312 -6.453125 24.347656 -7.453125 25.984375 -9.453125 C 27.628906 -11.460938 28.453125 -14.066406 28.453125 -17.265625 C 28.453125 -20.460938 27.628906 -23.0625 25.984375 -25.0625 C 24.347656 -27.070312 22.195312 -28.078125 19.53125 -28.078125 C 16.914062 -28.078125 14.804688 -27.0625 13.203125 -25.03125 C 11.609375 -23.007812 10.8125 -20.421875 10.8125 -17.265625 C 10.8125 -14.148438 11.609375 -11.566406 13.203125 -9.515625 C 14.804688 -7.472656 16.914062 -6.453125 19.53125 -6.453125 Z M 19.53125 -6.453125 "/></g></g></g><g fill="#c97e5c" fill-opacity="1"><g transform="translate(1122.390186, 881.263728)"><g><path d="M 13.703125 0.671875 C 10.460938 0.671875 7.765625 -0.195312 5.609375 -1.9375 C 3.460938 -3.675781 2.390625 -6.1875 2.390625 -9.46875 C 2.390625 -11.300781 2.75 -12.863281 3.46875 -14.15625 C 4.1875 -15.445312 5.140625 -16.503906 6.328125 -17.328125 C 7.429688 -18.109375 8.6875 -18.722656 10.09375 -19.171875 C 11.507812 -19.617188 12.9375 -19.988281 14.375 -20.28125 L 24.640625 -22.171875 C 24.554688 -24.304688 24.003906 -25.925781 22.984375 -27.03125 C 21.953125 -28.132812 20.414062 -28.6875 18.375 -28.6875 C 16.8125 -28.6875 15.425781 -28.222656 14.21875 -27.296875 C 13.007812 -26.378906 12.242188 -25.101562 11.921875 -23.46875 L 3.6875 -23.46875 C 4.09375 -26.175781 5.03125 -28.390625 6.5 -30.109375 C 7.976562 -31.828125 9.769531 -33.101562 11.875 -33.9375 C 13.988281 -34.78125 16.175781 -35.203125 18.4375 -35.203125 C 20.4375 -35.203125 22.359375 -34.914062 24.203125 -34.34375 C 26.046875 -33.769531 27.601562 -32.890625 28.875 -31.703125 C 30.226562 -30.515625 31.191406 -29.148438 31.765625 -27.609375 C 32.335938 -26.078125 32.675781 -24.476562 32.78125 -22.8125 C 32.882812 -21.15625 32.9375 -19.53125 32.9375 -17.9375 L 32.9375 0 L 24.640625 0 L 24.640625 -4.671875 C 23.773438 -3.148438 22.726562 -2.003906 21.5 -1.234375 C 20.4375 -0.535156 19.238281 -0.046875 17.90625 0.234375 C 16.570312 0.523438 15.171875 0.671875 13.703125 0.671875 Z M 15.734375 -5.84375 C 17.367188 -5.84375 18.84375 -6.164062 20.15625 -6.8125 C 21.957031 -7.71875 23.175781 -8.925781 23.8125 -10.4375 C 24.445312 -11.957031 24.785156 -13.84375 24.828125 -16.09375 L 16.59375 -14.4375 C 15.40625 -14.226562 14.429688 -13.957031 13.671875 -13.625 C 12.910156 -13.300781 12.285156 -12.914062 11.796875 -12.46875 C 11.460938 -12.144531 11.191406 -11.753906 10.984375 -11.296875 C 10.785156 -10.847656 10.6875 -10.335938 10.6875 -9.765625 C 10.6875 -8.492188 11.164062 -7.519531 12.125 -6.84375 C 13.09375 -6.175781 14.296875 -5.84375 15.734375 -5.84375 Z M 15.734375 -5.84375 "/></g></g></g><g fill="#c97e5c" fill-opacity="1"><g transform="translate(1155.254914, 881.263728)"><g><path d="M 10.015625 12.40625 L 4.296875 12.40625 L 4.296875 5.40625 L 8.046875 5.40625 C 9.109375 5.40625 9.988281 5.25 10.6875 4.9375 C 11.382812 4.632812 11.976562 3.847656 12.46875 2.578125 L 13.390625 0.125 L 0.671875 -34.46875 L 9.640625 -34.46875 L 17.6875 -9.15625 L 24.9375 -34.46875 L 33.859375 -34.46875 L 20.453125 4.0625 C 19.390625 7.125 18.085938 9.28125 16.546875 10.53125 C 15.015625 11.78125 12.835938 12.40625 10.015625 12.40625 Z M 10.015625 12.40625 "/></g></g></g><g fill="#c97e5c" fill-opacity="1"><g transform="translate(1186.522505, 881.263728)"><g><path d="M 12.046875 0 L 3.75 0 L 3.75 -34.46875 L 12.046875 -34.46875 Z M 12.046875 0 "/></g></g></g><g fill="#c97e5c" fill-opacity="1"><g transform="translate(1198.931104, 881.263728)"><g><path d="M 31.890625 0 L 1.90625 0 L 1.90625 -5.46875 L 21.5 -27.765625 L 2.953125 -27.765625 L 2.953125 -34.46875 L 31.953125 -34.46875 L 31.953125 -28.5 L 13.03125 -6.703125 L 31.890625 -6.703125 Z M 31.890625 0 "/></g></g></g><g fill="#c97e5c" fill-opacity="1"><g transform="translate(1229.584376, 881.263728)"><g><path d="M 7.625 0.671875 C 6.226562 0.671875 5.035156 0.191406 4.046875 -0.765625 C 3.066406 -1.734375 2.578125 -2.910156 2.578125 -4.296875 C 2.578125 -5.609375 3.078125 -6.742188 4.078125 -7.703125 C 5.085938 -8.671875 6.269531 -9.15625 7.625 -9.15625 C 8.925781 -9.15625 10.046875 -8.671875 10.984375 -7.703125 C 11.929688 -6.742188 12.40625 -5.609375 12.40625 -4.296875 C 12.40625 -2.910156 11.929688 -1.734375 10.984375 -0.765625 C 10.046875 0.191406 8.925781 0.671875 7.625 0.671875 Z M 7.625 0.671875 "/></g></g></g><g clip-path="url(#e898650820)"><path fill="#c97e5c" d="M 621.933594 801.050781 C 608.324219 801.050781 600.105469 786 607.457031 774.550781 L 655.351562 699.972656 C 656.648438 697.949219 657.339844 695.601562 657.339844 693.203125 C 657.339844 686.28125 651.730469 680.671875 644.8125 680.671875 L 599.753906 680.671875 C 590.683594 680.671875 583.328125 688.027344 583.328125 697.101562 L 583.328125 795.699219 C 583.328125 804.769531 590.683594 812.125 599.753906 812.125 L 664.910156 812.125 C 673.976562 812.125 681.328125 804.777344 681.335938 795.710938 L 681.355469 766.4375 C 681.363281 755.570312 667.1875 751.402344 661.3125 760.550781 L 642.519531 789.804688 C 638.019531 796.8125 630.261719 801.050781 621.933594 801.050781 Z M 621.933594 801.050781 " fill-opacity="1" fill-rule="nonzero"/></g><g transform="matrix(1, 0, 0, 1, 681, 676)"><g clip-path="url(#597657ce1f)"><g fill="#c97e5c" fill-opacity="1"><g transform="translate(0.37462, 130.344411)"><g><path d="M 33.71875 1.4375 C 22.34375 1.4375 14.691406 -2.628906 10.765625 -10.765625 C 9.617188 -13.210938 8.804688 -15.898438 8.328125 -18.828125 C 7.847656 -21.753906 7.609375 -25.882812 7.609375 -31.21875 L 7.609375 -73.609375 L 25.328125 -73.609375 L 25.328125 -31.09375 C 25.328125 -27.332031 25.609375 -24.289062 26.171875 -21.96875 C 26.742188 -19.65625 27.640625 -17.800781 28.859375 -16.40625 C 30.960938 -14.21875 34.070312 -13.125 38.1875 -13.125 C 43.257812 -13.125 47.019531 -14.609375 49.46875 -17.578125 C 50.945312 -19.328125 52.015625 -21.664062 52.671875 -24.59375 C 53.328125 -27.53125 53.65625 -31.40625 53.65625 -36.21875 L 53.65625 -73.609375 L 71.375 -73.609375 L 71.375 0 L 53.65625 0 L 53.65625 -9.3125 C 50.945312 -5.550781 48.039062 -2.816406 44.9375 -1.109375 C 41.832031 0.585938 38.09375 1.4375 33.71875 1.4375 Z M 33.71875 1.4375 "/></g></g></g><g fill="#c97e5c" fill-opacity="1"><g transform="translate(72.520676, 130.344411)"><g><path d="M 25.71875 0 L 8 0 L 8 -73.609375 L 25.71875 -73.609375 L 25.71875 -64.296875 C 28.601562 -68.316406 31.726562 -71.132812 35.09375 -72.75 C 38.457031 -74.363281 42.023438 -75.171875 45.796875 -75.171875 C 50.597656 -75.171875 54.726562 -74.1875 58.1875 -72.21875 C 61.644531 -70.257812 63.941406 -67.3125 65.078125 -63.375 C 67.523438 -67.476562 70.539062 -70.46875 74.125 -72.34375 C 77.71875 -74.226562 81.914062 -75.171875 86.71875 -75.171875 C 95.03125 -75.171875 101.128906 -72.742188 105.015625 -67.890625 C 108.910156 -63.035156 110.859375 -56.5 110.859375 -48.28125 L 110.859375 0 L 93.15625 0 L 93.15625 -46.046875 C 93.15625 -51.117188 92.171875 -54.8125 90.203125 -57.125 C 88.234375 -59.445312 85.367188 -60.609375 81.609375 -60.609375 C 79.679688 -60.609375 77.972656 -60.28125 76.484375 -59.625 C 75.003906 -58.96875 73.78125 -58.117188 72.8125 -57.078125 C 71.15625 -55.148438 70 -52.71875 69.34375 -49.78125 C 68.6875 -46.851562 68.359375 -43.25 68.359375 -38.96875 L 68.359375 0 L 50.640625 0 L 50.640625 -46.046875 C 50.640625 -51.035156 49.613281 -54.707031 47.5625 -57.0625 C 45.507812 -59.425781 42.644531 -60.609375 38.96875 -60.609375 C 35.289062 -60.609375 32.316406 -59.34375 30.046875 -56.8125 C 28.648438 -55.144531 27.578125 -52.929688 26.828125 -50.171875 C 26.085938 -47.421875 25.71875 -43.6875 25.71875 -38.96875 Z M 25.71875 0 "/></g></g></g><g fill="#c97e5c" fill-opacity="1"><g transform="translate(183.626156, 130.344411)"><g><path d="M 16.921875 -81.734375 C 13.953125 -81.734375 11.394531 -82.648438 9.25 -84.484375 C 7.101562 -86.328125 6.03125 -88.78125 6.03125 -91.84375 C 6.03125 -94.8125 7.101562 -97.234375 9.25 -99.109375 C 11.394531 -100.992188 13.953125 -101.9375 16.921875 -101.9375 C 19.898438 -101.9375 22.457031 -100.992188 24.59375 -99.109375 C 26.738281 -97.234375 27.8125 -94.8125 27.8125 -91.84375 C 27.8125 -88.78125 26.738281 -86.328125 24.59375 -84.484375 C 22.457031 -82.648438 19.898438 -81.734375 16.921875 -81.734375 Z M 25.71875 0 L 8 0 L 8 -73.609375 L 25.71875 -73.609375 Z M 25.71875 0 "/></g></g></g><g fill="#c97e5c" fill-opacity="1"><g transform="translate(210.122752, 130.344411)"><g><path d="M 25.71875 0 L 8 0 L 8 -73.609375 L 25.71875 -73.609375 L 25.71875 -64.296875 C 28.6875 -68.398438 31.789062 -71.238281 35.03125 -72.8125 C 38.269531 -74.382812 41.859375 -75.171875 45.796875 -75.171875 C 52.523438 -75.171875 57.613281 -73.96875 61.0625 -71.5625 C 64.519531 -69.164062 67.082031 -66.257812 68.75 -62.84375 C 70.238281 -59.601562 71.113281 -56.300781 71.375 -52.9375 C 71.632812 -49.570312 71.765625 -46.050781 71.765625 -42.375 L 71.765625 0 L 54.1875 0 L 54.1875 -42.640625 C 54.1875 -46.398438 53.878906 -49.4375 53.265625 -51.75 C 52.648438 -54.070312 51.734375 -55.929688 50.515625 -57.328125 C 48.410156 -59.515625 45.304688 -60.609375 41.203125 -60.609375 C 36.210938 -60.609375 32.492188 -59.125 30.046875 -56.15625 C 28.554688 -54.40625 27.460938 -52.085938 26.765625 -49.203125 C 26.066406 -46.316406 25.71875 -42.425781 25.71875 -37.53125 Z M 25.71875 0 "/></g></g></g><g fill="#c97e5c" fill-opacity="1"><g transform="translate(282.137634, 130.344411)"><g><path d="M 29.265625 1.4375 C 22.347656 1.4375 16.59375 -0.414062 12 -4.125 C 7.40625 -7.84375 5.109375 -13.203125 5.109375 -20.203125 C 5.109375 -24.140625 5.875 -27.484375 7.40625 -30.234375 C 8.9375 -32.992188 10.972656 -35.25 13.515625 -37 C 15.878906 -38.65625 18.566406 -39.960938 21.578125 -40.921875 C 24.597656 -41.890625 27.640625 -42.679688 30.703125 -43.296875 L 52.609375 -47.359375 C 52.429688 -51.910156 51.25 -55.367188 49.0625 -57.734375 C 46.882812 -60.085938 43.609375 -61.265625 39.234375 -61.265625 C 35.910156 -61.265625 32.957031 -60.28125 30.375 -58.3125 C 27.789062 -56.351562 26.148438 -53.625 25.453125 -50.125 L 7.875 -50.125 C 8.75 -55.894531 10.757812 -60.613281 13.90625 -64.28125 C 17.050781 -67.957031 20.875 -70.691406 25.375 -72.484375 C 29.882812 -74.273438 34.546875 -75.171875 39.359375 -75.171875 C 43.648438 -75.171875 47.757812 -74.554688 51.6875 -73.328125 C 55.625 -72.109375 58.953125 -70.234375 61.671875 -67.703125 C 64.554688 -65.160156 66.609375 -62.25 67.828125 -58.96875 C 69.054688 -55.695312 69.78125 -52.285156 70 -48.734375 C 70.21875 -45.191406 70.328125 -41.71875 70.328125 -38.3125 L 70.328125 0 L 52.609375 0 L 52.609375 -9.96875 C 50.773438 -6.726562 48.546875 -4.28125 45.921875 -2.625 C 43.648438 -1.132812 41.09375 -0.0859375 38.25 0.515625 C 35.40625 1.128906 32.410156 1.4375 29.265625 1.4375 Z M 33.59375 -12.46875 C 37.09375 -12.46875 40.238281 -13.164062 43.03125 -14.5625 C 46.882812 -16.488281 49.488281 -19.066406 50.84375 -22.296875 C 52.195312 -25.535156 52.914062 -29.5625 53 -34.375 L 35.421875 -30.828125 C 32.890625 -30.390625 30.8125 -29.820312 29.1875 -29.125 C 27.570312 -28.425781 26.238281 -27.597656 25.1875 -26.640625 C 24.488281 -25.929688 23.921875 -25.097656 23.484375 -24.140625 C 23.046875 -23.179688 22.828125 -22.085938 22.828125 -20.859375 C 22.828125 -18.148438 23.851562 -16.070312 25.90625 -14.625 C 27.96875 -13.1875 30.53125 -12.46875 33.59375 -12.46875 Z M 33.59375 -12.46875 "/></g></g></g></g></g></svg>