<svg xmlns="http://www.w3.org/2000/svg" width="136" height="40" viewBox="0 0 136 40" role="img" aria-labelledby="title">
  <title>Shopify</title>
  <rect width="136" height="40" rx="20" fill="#f3fbf6"/>
  <rect x="0.5" y="0.5" width="135" height="39" rx="19.5" fill="none" stroke="#d7eedf"/>
  <g transform="translate(14 8)">
    <path d="M9 2.2c1.9 0 3.3 1.2 3.7 3.2l1.9.6c.8.2 1.4 1 1.4 1.8v11.1c0 1-.8 1.9-1.9 1.9H3.9C2.8 20.6 2 19.7 2 18.7V7.8c0-.9.6-1.6 1.4-1.8l1.9-.6C5.7 3.4 7.1 2.2 9 2.2Z" fill="#4a9b62"/>
    <path d="M6.1 6.3V5.8c0-1.9 1.3-3.3 2.9-3.3s2.9 1.4 2.9 3.3v.5" fill="none" stroke="#f3fbf6" stroke-width="1.8" stroke-linecap="round"/>
    <path d="M7.6 10.2c.8-.4 1.7-.6 2.7-.6 1.1 0 2.1.2 3 .6" fill="none" stroke="#f3fbf6" stroke-width="1.6" stroke-linecap="round"/>
  </g>
  <text x="82" y="25.5" text-anchor="middle" font-family="Arial, Helvetica, sans-serif" font-size="18" font-weight="700" fill="#1e5f38">Shopify</text>
</svg>
