<svg xmlns="http://www.w3.org/2000/svg" xmlns:xlink="http://www.w3.org/1999/xlink" width="384" zoomAndPan="magnify" viewBox="0 0 288 359.999987" height="480" preserveAspectRatio="xMidYMid meet" version="1.0"><defs><g/><clipPath id="45ae03e742"><path d="M 0 0 L 241 0 L 241 253 L 0 253 Z M 0 0 " clip-rule="nonzero"/></clipPath><clipPath id="a17aae9eb4"><path d="M 240.261719 79.113281 L 113.34375 252.964844 L -119.871094 82.703125 L 7.050781 -91.144531 Z M 240.261719 79.113281 " clip-rule="nonzero"/></clipPath><clipPath id="1113acca22"><path d="M 0 0 L 226 0 L 226 239 L 0 239 Z M 0 0 " clip-rule="nonzero"/></clipPath><clipPath id="992c89e2cf"><path d="M 240.261719 79.113281 L 113.34375 252.964844 L -119.871094 82.703125 L 7.050781 -91.144531 Z M 240.261719 79.113281 " clip-rule="nonzero"/></clipPath><clipPath id="56d2d20b77"><path d="M 7.003906 -91.179688 L -119.917969 82.671875 L 113.296875 252.929688 L 240.214844 79.078125 Z M 7.003906 -91.179688 " clip-rule="nonzero"/></clipPath><clipPath id="3066c475a1"><rect x="0" width="241" y="0" height="253"/></clipPath><clipPath id="eb45523f28"><rect x="0" width="96" y="0" height="45"/></clipPath><clipPath id="118099255a"><rect x="0" width="88" y="0" height="16"/></clipPath><clipPath id="3404dd7cbb"><path d="M 130.902344 260.757812 L 157.152344 260.757812 L 157.152344 296 L 130.902344 296 Z M 130.902344 260.757812 " clip-rule="nonzero"/></clipPath></defs><rect x="-28.8" width="345.6" fill="#ffffff" y="-35.999999" height="431.999984" fill-opacity="1"/><rect x="-28.8" width="345.6" fill="#0b1f3b" y="-35.999999" height="431.999984" fill-opacity="1"/><g clip-path="url(#45ae03e742)"><g clip-path="url(#a17aae9eb4)"><g><g clip-path="url(#3066c475a1)"><g clip-path="url(#1113acca22)"><g clip-path="url(#992c89e2cf)"><g clip-path="url(#56d2d20b77)"><path fill="#ffffff" d="M 170.582031 133.117188 C 188.1875 109 172.148438 74.953125 142.339844 73.167969 L -51.832031 61.554688 C -57.089844 61.238281 -62.144531 59.421875 -66.402344 56.316406 C -78.664062 47.363281 -81.347656 30.160156 -72.394531 17.898438 L -14.089844 -61.964844 C -2.351562 -78.046875 20.203125 -81.5625 36.28125 -69.824219 L 211.046875 57.761719 C 227.128906 69.503906 230.648438 92.054688 218.90625 108.136719 L 134.59375 223.625 C 122.859375 239.695312 100.324219 243.222656 84.242188 231.5 L 32.332031 193.660156 C 13.054688 179.605469 24.015625 149.085938 47.832031 150.507812 L 124.003906 155.058594 C 142.253906 156.148438 159.800781 147.882812 170.582031 133.117188 Z M 170.582031 133.117188 " fill-opacity="1" fill-rule="nonzero"/></g></g></g></g></g></g></g><g transform="matrix(1, 0, 0, 1, 156, 259)"><g clip-path="url(#eb45523f28)"><g fill="#ffffff" fill-opacity="1"><g transform="translate(1.033631, 35.834888)"><g><path d="M 8.984375 0.390625 C 5.953125 0.390625 3.914062 -0.695312 2.875 -2.875 C 2.5625 -3.519531 2.34375 -4.234375 2.21875 -5.015625 C 2.09375 -5.796875 2.03125 -6.898438 2.03125 -8.328125 L 2.03125 -19.625 L 6.75 -19.625 L 6.75 -8.28125 C 6.75 -7.28125 6.820312 -6.472656 6.96875 -5.859375 C 7.125 -5.242188 7.363281 -4.75 7.6875 -4.375 C 8.25 -3.789062 9.078125 -3.5 10.171875 -3.5 C 11.523438 -3.5 12.53125 -3.894531 13.1875 -4.6875 C 13.582031 -5.15625 13.863281 -5.78125 14.03125 -6.5625 C 14.207031 -7.34375 14.296875 -8.375 14.296875 -9.65625 L 14.296875 -19.625 L 19.015625 -19.625 L 19.015625 0 L 14.296875 0 L 14.296875 -2.484375 C 13.578125 -1.484375 12.800781 -0.753906 11.96875 -0.296875 C 11.144531 0.160156 10.148438 0.390625 8.984375 0.390625 Z M 8.984375 0.390625 "/></g></g></g><g fill="#ffffff" fill-opacity="1"><g transform="translate(20.26152, 35.834888)"><g><path d="M 6.859375 0 L 2.140625 0 L 2.140625 -19.625 L 6.859375 -19.625 L 6.859375 -17.140625 C 7.628906 -18.210938 8.460938 -18.960938 9.359375 -19.390625 C 10.253906 -19.816406 11.203125 -20.03125 12.203125 -20.03125 C 13.484375 -20.03125 14.582031 -19.769531 15.5 -19.25 C 16.425781 -18.726562 17.039062 -17.941406 17.34375 -16.890625 C 18 -17.984375 18.800781 -18.78125 19.75 -19.28125 C 20.707031 -19.78125 21.828125 -20.03125 23.109375 -20.03125 C 25.328125 -20.03125 26.953125 -19.382812 27.984375 -18.09375 C 29.023438 -16.800781 29.546875 -15.0625 29.546875 -12.875 L 29.546875 0 L 24.828125 0 L 24.828125 -12.28125 C 24.828125 -13.625 24.5625 -14.601562 24.03125 -15.21875 C 23.507812 -15.84375 22.75 -16.15625 21.75 -16.15625 C 21.238281 -16.15625 20.785156 -16.066406 20.390625 -15.890625 C 19.992188 -15.710938 19.664062 -15.488281 19.40625 -15.21875 C 18.96875 -14.695312 18.660156 -14.046875 18.484375 -13.265625 C 18.304688 -12.484375 18.21875 -11.523438 18.21875 -10.390625 L 18.21875 0 L 13.5 0 L 13.5 -12.28125 C 13.5 -13.601562 13.222656 -14.578125 12.671875 -15.203125 C 12.128906 -15.835938 11.367188 -16.15625 10.390625 -16.15625 C 9.410156 -16.15625 8.617188 -15.816406 8.015625 -15.140625 C 7.640625 -14.703125 7.351562 -14.113281 7.15625 -13.375 C 6.957031 -12.644531 6.859375 -11.648438 6.859375 -10.390625 Z M 6.859375 0 "/></g></g></g><g fill="#ffffff" fill-opacity="1"><g transform="translate(49.872701, 35.834888)"><g><path d="M 4.515625 -21.78125 C 3.722656 -21.78125 3.039062 -22.023438 2.46875 -22.515625 C 1.894531 -23.003906 1.609375 -23.660156 1.609375 -24.484375 C 1.609375 -25.273438 1.894531 -25.921875 2.46875 -26.421875 C 3.039062 -26.921875 3.722656 -27.171875 4.515625 -27.171875 C 5.304688 -27.171875 5.984375 -26.921875 6.546875 -26.421875 C 7.117188 -25.921875 7.40625 -25.273438 7.40625 -24.484375 C 7.40625 -23.660156 7.117188 -23.003906 6.546875 -22.515625 C 5.984375 -22.023438 5.304688 -21.78125 4.515625 -21.78125 Z M 6.859375 0 L 2.140625 0 L 2.140625 -19.625 L 6.859375 -19.625 Z M 6.859375 0 "/></g></g></g><g fill="#ffffff" fill-opacity="1"><g transform="translate(56.934318, 35.834888)"><g><path d="M 6.859375 0 L 2.140625 0 L 2.140625 -19.625 L 6.859375 -19.625 L 6.859375 -17.140625 C 7.648438 -18.234375 8.472656 -18.988281 9.328125 -19.40625 C 10.191406 -19.820312 11.148438 -20.03125 12.203125 -20.03125 C 13.992188 -20.03125 15.347656 -19.707031 16.265625 -19.0625 C 17.191406 -18.425781 17.878906 -17.65625 18.328125 -16.75 C 18.722656 -15.882812 18.953125 -15.003906 19.015625 -14.109375 C 19.085938 -13.210938 19.125 -12.273438 19.125 -11.296875 L 19.125 0 L 14.4375 0 L 14.4375 -11.359375 C 14.4375 -12.367188 14.351562 -13.179688 14.1875 -13.796875 C 14.03125 -14.410156 13.789062 -14.90625 13.46875 -15.28125 C 12.90625 -15.863281 12.078125 -16.15625 10.984375 -16.15625 C 9.648438 -16.15625 8.660156 -15.757812 8.015625 -14.96875 C 7.609375 -14.5 7.3125 -13.878906 7.125 -13.109375 C 6.945312 -12.335938 6.859375 -11.300781 6.859375 -10 Z M 6.859375 0 "/></g></g></g><g fill="#ffffff" fill-opacity="1"><g transform="translate(76.127249, 35.834888)"><g><path d="M 7.796875 0.390625 C 5.953125 0.390625 4.414062 -0.101562 3.1875 -1.09375 C 1.96875 -2.09375 1.359375 -3.523438 1.359375 -5.390625 C 1.359375 -6.429688 1.5625 -7.316406 1.96875 -8.046875 C 2.382812 -8.785156 2.929688 -9.390625 3.609375 -9.859375 C 4.234375 -10.304688 4.945312 -10.65625 5.75 -10.90625 C 6.550781 -11.164062 7.363281 -11.378906 8.1875 -11.546875 L 14.015625 -12.625 C 13.972656 -13.832031 13.660156 -14.753906 13.078125 -15.390625 C 12.492188 -16.015625 11.617188 -16.328125 10.453125 -16.328125 C 9.566406 -16.328125 8.78125 -16.0625 8.09375 -15.53125 C 7.40625 -15.007812 6.96875 -14.285156 6.78125 -13.359375 L 2.09375 -13.359375 C 2.332031 -14.898438 2.867188 -16.160156 3.703125 -17.140625 C 4.546875 -18.117188 5.566406 -18.84375 6.765625 -19.3125 C 7.960938 -19.789062 9.203125 -20.03125 10.484375 -20.03125 C 11.628906 -20.03125 12.722656 -19.867188 13.765625 -19.546875 C 14.816406 -19.222656 15.707031 -18.722656 16.4375 -18.046875 C 17.207031 -17.367188 17.753906 -16.59375 18.078125 -15.71875 C 18.398438 -14.84375 18.59375 -13.929688 18.65625 -12.984375 C 18.71875 -12.046875 18.75 -11.117188 18.75 -10.203125 L 18.75 0 L 14.015625 0 L 14.015625 -2.65625 C 13.523438 -1.789062 12.929688 -1.140625 12.234375 -0.703125 C 11.628906 -0.304688 10.945312 -0.0234375 10.1875 0.140625 C 9.4375 0.304688 8.640625 0.390625 7.796875 0.390625 Z M 8.953125 -3.328125 C 9.878906 -3.328125 10.71875 -3.507812 11.46875 -3.875 C 12.5 -4.394531 13.191406 -5.082031 13.546875 -5.9375 C 13.910156 -6.800781 14.101562 -7.875 14.125 -9.15625 L 9.4375 -8.21875 C 8.757812 -8.101562 8.207031 -7.953125 7.78125 -7.765625 C 7.351562 -7.578125 7 -7.351562 6.71875 -7.09375 C 6.53125 -6.90625 6.375 -6.679688 6.25 -6.421875 C 6.132812 -6.171875 6.078125 -5.882812 6.078125 -5.5625 C 6.078125 -4.832031 6.351562 -4.273438 6.90625 -3.890625 C 7.457031 -3.515625 8.140625 -3.328125 8.953125 -3.328125 Z M 8.953125 -3.328125 "/></g></g></g></g></g><g transform="matrix(1, 0, 0, 1, 130, 310)"><g clip-path="url(#118099255a)"><g fill="#ffffff" fill-opacity="1"><g transform="translate(0.902695, 12.429411)"><g><path d="M 4.59375 0.171875 C 4.132812 0.171875 3.671875 0.113281 3.203125 0 C 2.742188 -0.101562 2.316406 -0.28125 1.921875 -0.53125 C 1.523438 -0.78125 1.191406 -1.113281 0.921875 -1.53125 C 0.648438 -1.945312 0.488281 -2.457031 0.4375 -3.0625 L 2.28125 -3.0625 C 2.382812 -2.625 2.554688 -2.273438 2.796875 -2.015625 C 3.035156 -1.765625 3.3125 -1.585938 3.625 -1.484375 C 3.945312 -1.390625 4.273438 -1.34375 4.609375 -1.34375 C 5.085938 -1.34375 5.492188 -1.445312 5.828125 -1.65625 C 6.160156 -1.863281 6.328125 -2.191406 6.328125 -2.640625 C 6.328125 -2.972656 6.21875 -3.226562 6 -3.40625 C 5.789062 -3.59375 5.515625 -3.738281 5.171875 -3.84375 C 4.828125 -3.945312 4.453125 -4.039062 4.046875 -4.125 C 3.660156 -4.207031 3.269531 -4.300781 2.875 -4.40625 C 2.488281 -4.519531 2.132812 -4.671875 1.8125 -4.859375 C 1.488281 -5.046875 1.226562 -5.296875 1.03125 -5.609375 C 0.84375 -5.929688 0.75 -6.34375 0.75 -6.84375 C 0.75 -7.457031 0.894531 -7.96875 1.1875 -8.375 C 1.476562 -8.78125 1.875 -9.085938 2.375 -9.296875 C 2.875 -9.503906 3.441406 -9.609375 4.078125 -9.609375 C 4.691406 -9.609375 5.265625 -9.5 5.796875 -9.28125 C 6.335938 -9.070312 6.789062 -8.75 7.15625 -8.3125 C 7.53125 -7.875 7.769531 -7.316406 7.875 -6.640625 L 6.046875 -6.640625 C 5.929688 -7.140625 5.691406 -7.503906 5.328125 -7.734375 C 4.960938 -7.972656 4.535156 -8.09375 4.046875 -8.09375 C 3.597656 -8.09375 3.226562 -8 2.9375 -7.8125 C 2.65625 -7.625 2.515625 -7.347656 2.515625 -6.984375 C 2.515625 -6.703125 2.613281 -6.476562 2.8125 -6.3125 C 3.019531 -6.144531 3.285156 -6.015625 3.609375 -5.921875 C 3.941406 -5.828125 4.296875 -5.734375 4.671875 -5.640625 C 5.066406 -5.554688 5.460938 -5.453125 5.859375 -5.328125 C 6.265625 -5.210938 6.640625 -5.050781 6.984375 -4.84375 C 7.328125 -4.644531 7.601562 -4.378906 7.8125 -4.046875 C 8.019531 -3.710938 8.125 -3.273438 8.125 -2.734375 C 8.125 -1.835938 7.8125 -1.128906 7.1875 -0.609375 C 6.570312 -0.0859375 5.707031 0.171875 4.59375 0.171875 Z M 4.59375 0.171875 "/></g></g></g><g fill="#ffffff" fill-opacity="1"><g transform="translate(8.821715, 12.429411)"><g><path d="M 1.59375 -7.703125 C 1.3125 -7.703125 1.066406 -7.789062 0.859375 -7.96875 C 0.660156 -8.144531 0.5625 -8.375 0.5625 -8.65625 C 0.5625 -8.9375 0.660156 -9.164062 0.859375 -9.34375 C 1.066406 -9.519531 1.3125 -9.609375 1.59375 -9.609375 C 1.875 -9.609375 2.113281 -9.519531 2.3125 -9.34375 C 2.519531 -9.164062 2.625 -8.9375 2.625 -8.65625 C 2.625 -8.375 2.519531 -8.144531 2.3125 -7.96875 C 2.113281 -7.789062 1.875 -7.703125 1.59375 -7.703125 Z M 2.421875 0 L 0.75 0 L 0.75 -6.9375 L 2.421875 -6.9375 Z M 2.421875 0 "/></g></g></g><g fill="#ffffff" fill-opacity="1"><g transform="translate(11.320975, 12.429411)"><g><path d="M 4.40625 0.140625 C 4 0.140625 3.640625 0.0664062 3.328125 -0.078125 C 3.015625 -0.222656 2.71875 -0.488281 2.4375 -0.875 L 2.4375 0 L 0.765625 0 L 0.765625 -9.4375 L 2.4375 -9.4375 L 2.4375 -6.0625 C 2.71875 -6.457031 3.015625 -6.726562 3.328125 -6.875 C 3.640625 -7.019531 4 -7.09375 4.40625 -7.09375 C 5.019531 -7.09375 5.550781 -6.9375 6 -6.625 C 6.457031 -6.320312 6.816406 -5.898438 7.078125 -5.359375 C 7.335938 -4.816406 7.46875 -4.191406 7.46875 -3.484375 C 7.46875 -2.765625 7.335938 -2.132812 7.078125 -1.59375 C 6.816406 -1.050781 6.457031 -0.625 6 -0.3125 C 5.550781 -0.0078125 5.019531 0.140625 4.40625 0.140625 Z M 4.015625 -1.296875 C 4.554688 -1.296875 4.984375 -1.5 5.296875 -1.90625 C 5.617188 -2.320312 5.78125 -2.847656 5.78125 -3.484375 C 5.78125 -4.117188 5.617188 -4.640625 5.296875 -5.046875 C 4.984375 -5.453125 4.554688 -5.65625 4.015625 -5.65625 C 3.492188 -5.65625 3.066406 -5.453125 2.734375 -5.046875 C 2.398438 -4.640625 2.234375 -4.117188 2.234375 -3.484375 C 2.234375 -2.835938 2.398438 -2.3125 2.734375 -1.90625 C 3.066406 -1.5 3.492188 -1.296875 4.015625 -1.296875 Z M 4.015625 -1.296875 "/></g></g></g><g fill="#ffffff" fill-opacity="1"><g transform="translate(18.584174, 12.429411)"><g><path d="M 4.015625 0.140625 C 3.296875 0.140625 2.671875 -0.015625 2.140625 -0.328125 C 1.609375 -0.640625 1.195312 -1.0625 0.90625 -1.59375 C 0.613281 -2.132812 0.46875 -2.742188 0.46875 -3.421875 C 0.46875 -3.878906 0.535156 -4.328125 0.671875 -4.765625 C 0.816406 -5.203125 1.03125 -5.59375 1.3125 -5.9375 C 1.601562 -6.289062 1.96875 -6.570312 2.40625 -6.78125 C 2.84375 -6.988281 3.359375 -7.09375 3.953125 -7.09375 C 4.398438 -7.09375 4.832031 -7.019531 5.25 -6.875 C 5.664062 -6.738281 6.039062 -6.523438 6.375 -6.234375 C 6.707031 -5.941406 6.96875 -5.566406 7.15625 -5.109375 C 7.351562 -4.660156 7.453125 -4.117188 7.453125 -3.484375 L 7.453125 -3.125 L 2.203125 -3.125 C 2.222656 -2.976562 2.253906 -2.832031 2.296875 -2.6875 C 2.347656 -2.539062 2.40625 -2.414062 2.46875 -2.3125 C 2.625 -1.988281 2.84375 -1.738281 3.125 -1.5625 C 3.40625 -1.382812 3.722656 -1.296875 4.078125 -1.296875 C 4.472656 -1.296875 4.800781 -1.398438 5.0625 -1.609375 C 5.332031 -1.816406 5.519531 -2.0625 5.625 -2.34375 L 7.34375 -2.34375 C 7.207031 -1.894531 6.992188 -1.484375 6.703125 -1.109375 C 6.421875 -0.734375 6.054688 -0.429688 5.609375 -0.203125 C 5.160156 0.0234375 4.628906 0.140625 4.015625 0.140625 Z M 2.28125 -4.375 L 5.734375 -4.375 C 5.734375 -4.46875 5.710938 -4.570312 5.671875 -4.6875 C 5.640625 -4.800781 5.578125 -4.914062 5.484375 -5.03125 C 5.328125 -5.269531 5.117188 -5.453125 4.859375 -5.578125 C 4.597656 -5.703125 4.316406 -5.765625 4.015625 -5.765625 C 3.703125 -5.765625 3.421875 -5.703125 3.171875 -5.578125 C 2.921875 -5.453125 2.710938 -5.269531 2.546875 -5.03125 C 2.453125 -4.914062 2.382812 -4.800781 2.34375 -4.6875 C 2.3125 -4.570312 2.289062 -4.46875 2.28125 -4.375 Z M 2.28125 -4.375 "/></g></g></g><g fill="#ffffff" fill-opacity="1"><g transform="translate(25.810257, 12.429411)"><g><path d="M 2.421875 0 L 0.75 0 L 0.75 -6.9375 L 2.421875 -6.9375 L 2.421875 -6.109375 C 2.691406 -6.472656 2.988281 -6.726562 3.3125 -6.875 C 3.632812 -7.019531 4 -7.09375 4.40625 -7.09375 L 4.609375 -7.09375 L 4.609375 -5.484375 L 4.21875 -5.484375 C 3.9375 -5.484375 3.691406 -5.445312 3.484375 -5.375 C 3.285156 -5.300781 3.117188 -5.195312 2.984375 -5.0625 C 2.796875 -4.882812 2.65625 -4.644531 2.5625 -4.34375 C 2.46875 -4.050781 2.421875 -3.675781 2.421875 -3.21875 Z M 2.421875 0 "/></g></g></g><g fill="#ffffff" fill-opacity="1"><g transform="translate(29.955244, 12.429411)"><g/></g></g><g fill="#ffffff" fill-opacity="1"><g transform="translate(32.578248, 12.429411)"><g><path d="M 2.625 0 L 0.84375 0 L 0.84375 -9.4375 L 2.625 -9.4375 L 2.625 -5.53125 L 6.671875 -5.53125 L 6.671875 -9.4375 L 8.453125 -9.4375 L 8.453125 0 L 6.671875 0 L 6.671875 -3.9375 L 2.625 -3.9375 Z M 2.625 0 "/></g></g></g><g fill="#ffffff" fill-opacity="1"><g transform="translate(41.190207, 12.429411)"><g><path d="M 1.59375 -7.703125 C 1.3125 -7.703125 1.066406 -7.789062 0.859375 -7.96875 C 0.660156 -8.144531 0.5625 -8.375 0.5625 -8.65625 C 0.5625 -8.9375 0.660156 -9.164062 0.859375 -9.34375 C 1.066406 -9.519531 1.3125 -9.609375 1.59375 -9.609375 C 1.875 -9.609375 2.113281 -9.519531 2.3125 -9.34375 C 2.519531 -9.164062 2.625 -8.9375 2.625 -8.65625 C 2.625 -8.375 2.519531 -8.144531 2.3125 -7.96875 C 2.113281 -7.789062 1.875 -7.703125 1.59375 -7.703125 Z M 2.421875 0 L 0.75 0 L 0.75 -6.9375 L 2.421875 -6.9375 Z M 2.421875 0 "/></g></g></g><g fill="#ffffff" fill-opacity="1"><g transform="translate(43.689466, 12.429411)"><g><path d="M 6.421875 0 L 0.390625 0 L 0.390625 -1.09375 L 4.328125 -5.59375 L 0.59375 -5.59375 L 0.59375 -6.9375 L 6.4375 -6.9375 L 6.4375 -5.734375 L 2.625 -1.34375 L 6.421875 -1.34375 Z M 6.421875 0 "/></g></g></g><g fill="#ffffff" fill-opacity="1"><g transform="translate(49.863769, 12.429411)"><g><path d="M 2.421875 0 L 0.75 0 L 0.75 -6.9375 L 2.421875 -6.9375 L 2.421875 -6.0625 C 2.691406 -6.445312 2.984375 -6.710938 3.296875 -6.859375 C 3.617188 -7.015625 3.957031 -7.09375 4.3125 -7.09375 C 4.769531 -7.09375 5.160156 -7 5.484375 -6.8125 C 5.816406 -6.625 6.035156 -6.347656 6.140625 -5.984375 C 6.367188 -6.367188 6.648438 -6.648438 6.984375 -6.828125 C 7.328125 -7.003906 7.726562 -7.09375 8.1875 -7.09375 C 8.96875 -7.09375 9.539062 -6.863281 9.90625 -6.40625 C 10.269531 -5.945312 10.453125 -5.328125 10.453125 -4.546875 L 10.453125 0 L 8.78125 0 L 8.78125 -4.34375 C 8.78125 -4.820312 8.6875 -5.171875 8.5 -5.390625 C 8.320312 -5.609375 8.054688 -5.71875 7.703125 -5.71875 C 7.515625 -5.71875 7.347656 -5.6875 7.203125 -5.625 C 7.066406 -5.5625 6.957031 -5.484375 6.875 -5.390625 C 6.71875 -5.203125 6.609375 -4.96875 6.546875 -4.6875 C 6.484375 -4.414062 6.453125 -4.078125 6.453125 -3.671875 L 6.453125 0 L 4.78125 0 L 4.78125 -4.34375 C 4.78125 -4.8125 4.679688 -5.15625 4.484375 -5.375 C 4.285156 -5.601562 4.015625 -5.71875 3.671875 -5.71875 C 3.328125 -5.71875 3.046875 -5.597656 2.828125 -5.359375 C 2.703125 -5.203125 2.601562 -4.992188 2.53125 -4.734375 C 2.457031 -4.472656 2.421875 -4.117188 2.421875 -3.671875 Z M 2.421875 0 "/></g></g></g><g fill="#ffffff" fill-opacity="1"><g transform="translate(60.34418, 12.429411)"><g><path d="M 4.015625 0.140625 C 3.296875 0.140625 2.671875 -0.015625 2.140625 -0.328125 C 1.609375 -0.640625 1.195312 -1.0625 0.90625 -1.59375 C 0.613281 -2.132812 0.46875 -2.742188 0.46875 -3.421875 C 0.46875 -3.878906 0.535156 -4.328125 0.671875 -4.765625 C 0.816406 -5.203125 1.03125 -5.59375 1.3125 -5.9375 C 1.601562 -6.289062 1.96875 -6.570312 2.40625 -6.78125 C 2.84375 -6.988281 3.359375 -7.09375 3.953125 -7.09375 C 4.398438 -7.09375 4.832031 -7.019531 5.25 -6.875 C 5.664062 -6.738281 6.039062 -6.523438 6.375 -6.234375 C 6.707031 -5.941406 6.96875 -5.566406 7.15625 -5.109375 C 7.351562 -4.660156 7.453125 -4.117188 7.453125 -3.484375 L 7.453125 -3.125 L 2.203125 -3.125 C 2.222656 -2.976562 2.253906 -2.832031 2.296875 -2.6875 C 2.347656 -2.539062 2.40625 -2.414062 2.46875 -2.3125 C 2.625 -1.988281 2.84375 -1.738281 3.125 -1.5625 C 3.40625 -1.382812 3.722656 -1.296875 4.078125 -1.296875 C 4.472656 -1.296875 4.800781 -1.398438 5.0625 -1.609375 C 5.332031 -1.816406 5.519531 -2.0625 5.625 -2.34375 L 7.34375 -2.34375 C 7.207031 -1.894531 6.992188 -1.484375 6.703125 -1.109375 C 6.421875 -0.734375 6.054688 -0.429688 5.609375 -0.203125 C 5.160156 0.0234375 4.628906 0.140625 4.015625 0.140625 Z M 2.28125 -4.375 L 5.734375 -4.375 C 5.734375 -4.46875 5.710938 -4.570312 5.671875 -4.6875 C 5.640625 -4.800781 5.578125 -4.914062 5.484375 -5.03125 C 5.328125 -5.269531 5.117188 -5.453125 4.859375 -5.578125 C 4.597656 -5.703125 4.316406 -5.765625 4.015625 -5.765625 C 3.703125 -5.765625 3.421875 -5.703125 3.171875 -5.578125 C 2.921875 -5.453125 2.710938 -5.269531 2.546875 -5.03125 C 2.453125 -4.914062 2.382812 -4.800781 2.34375 -4.6875 C 2.3125 -4.570312 2.289062 -4.46875 2.28125 -4.375 Z M 2.28125 -4.375 "/></g></g></g><g fill="#ffffff" fill-opacity="1"><g transform="translate(67.570262, 12.429411)"><g><path d="M 4.3125 0 L 2.9375 0 C 2.425781 0 2.023438 -0.117188 1.734375 -0.359375 C 1.453125 -0.597656 1.3125 -0.984375 1.3125 -1.515625 L 1.3125 -5.609375 L 0.28125 -5.609375 L 0.28125 -6.9375 L 1.3125 -6.9375 L 1.3125 -9.4375 L 2.984375 -9.4375 L 2.984375 -6.9375 L 4.3125 -6.9375 L 4.3125 -5.609375 L 2.984375 -5.609375 L 2.984375 -2.03125 C 2.984375 -1.84375 3.015625 -1.6875 3.078125 -1.5625 C 3.140625 -1.445312 3.296875 -1.390625 3.546875 -1.390625 L 4.3125 -1.390625 Z M 4.3125 0 "/></g></g></g><g fill="#ffffff" fill-opacity="1"><g transform="translate(71.61626, 12.429411)"><g><path d="M 3.421875 0 L 2.34375 0 C 1.832031 0 1.4375 -0.117188 1.15625 -0.359375 C 0.875 -0.597656 0.734375 -0.984375 0.734375 -1.515625 L 0.734375 -9.4375 L 2.40625 -9.4375 L 2.40625 -2.015625 C 2.40625 -1.785156 2.445312 -1.625 2.53125 -1.53125 C 2.613281 -1.4375 2.757812 -1.390625 2.96875 -1.390625 L 3.421875 -1.390625 Z M 3.421875 0 "/></g></g></g><g fill="#ffffff" fill-opacity="1"><g transform="translate(74.659968, 12.429411)"><g><path d="M 4.015625 0.140625 C 3.296875 0.140625 2.671875 -0.015625 2.140625 -0.328125 C 1.609375 -0.640625 1.195312 -1.0625 0.90625 -1.59375 C 0.613281 -2.132812 0.46875 -2.742188 0.46875 -3.421875 C 0.46875 -3.878906 0.535156 -4.328125 0.671875 -4.765625 C 0.816406 -5.203125 1.03125 -5.59375 1.3125 -5.9375 C 1.601562 -6.289062 1.96875 -6.570312 2.40625 -6.78125 C 2.84375 -6.988281 3.359375 -7.09375 3.953125 -7.09375 C 4.398438 -7.09375 4.832031 -7.019531 5.25 -6.875 C 5.664062 -6.738281 6.039062 -6.523438 6.375 -6.234375 C 6.707031 -5.941406 6.96875 -5.566406 7.15625 -5.109375 C 7.351562 -4.660156 7.453125 -4.117188 7.453125 -3.484375 L 7.453125 -3.125 L 2.203125 -3.125 C 2.222656 -2.976562 2.253906 -2.832031 2.296875 -2.6875 C 2.347656 -2.539062 2.40625 -2.414062 2.46875 -2.3125 C 2.625 -1.988281 2.84375 -1.738281 3.125 -1.5625 C 3.40625 -1.382812 3.722656 -1.296875 4.078125 -1.296875 C 4.472656 -1.296875 4.800781 -1.398438 5.0625 -1.609375 C 5.332031 -1.816406 5.519531 -2.0625 5.625 -2.34375 L 7.34375 -2.34375 C 7.207031 -1.894531 6.992188 -1.484375 6.703125 -1.109375 C 6.421875 -0.734375 6.054688 -0.429688 5.609375 -0.203125 C 5.160156 0.0234375 4.628906 0.140625 4.015625 0.140625 Z M 2.28125 -4.375 L 5.734375 -4.375 C 5.734375 -4.46875 5.710938 -4.570312 5.671875 -4.6875 C 5.640625 -4.800781 5.578125 -4.914062 5.484375 -5.03125 C 5.328125 -5.269531 5.117188 -5.453125 4.859375 -5.578125 C 4.597656 -5.703125 4.316406 -5.765625 4.015625 -5.765625 C 3.703125 -5.765625 3.421875 -5.703125 3.171875 -5.578125 C 2.921875 -5.453125 2.710938 -5.269531 2.546875 -5.03125 C 2.453125 -4.914062 2.382812 -4.800781 2.34375 -4.6875 C 2.3125 -4.570312 2.289062 -4.46875 2.28125 -4.375 Z M 2.28125 -4.375 "/></g></g></g><g fill="#ffffff" fill-opacity="1"><g transform="translate(81.88605, 12.429411)"><g><path d="M 2.421875 0 L 0.75 0 L 0.75 -6.9375 L 2.421875 -6.9375 L 2.421875 -6.109375 C 2.691406 -6.472656 2.988281 -6.726562 3.3125 -6.875 C 3.632812 -7.019531 4 -7.09375 4.40625 -7.09375 L 4.609375 -7.09375 L 4.609375 -5.484375 L 4.21875 -5.484375 C 3.9375 -5.484375 3.691406 -5.445312 3.484375 -5.375 C 3.285156 -5.300781 3.117188 -5.195312 2.984375 -5.0625 C 2.796875 -4.882812 2.65625 -4.644531 2.5625 -4.34375 C 2.46875 -4.050781 2.421875 -3.675781 2.421875 -3.21875 Z M 2.421875 0 "/></g></g></g></g></g><g clip-path="url(#3404dd7cbb)"><path fill="#ffffff" d="M 141.1875 292.859375 C 137.5625 292.859375 135.371094 288.851562 137.328125 285.800781 L 150.089844 265.929688 C 150.4375 265.390625 150.621094 264.765625 150.621094 264.125 C 150.621094 262.28125 149.125 260.789062 147.28125 260.789062 L 135.277344 260.789062 C 132.859375 260.789062 130.902344 262.746094 130.902344 265.164062 L 130.902344 291.433594 C 130.902344 293.851562 132.859375 295.8125 135.277344 295.8125 L 152.636719 295.8125 C 155.054688 295.8125 157.011719 293.855469 157.015625 291.4375 L 157.019531 283.640625 C 157.019531 280.742188 153.242188 279.632812 151.679688 282.070312 L 146.671875 289.863281 C 145.472656 291.730469 143.40625 292.859375 141.1875 292.859375 Z M 141.1875 292.859375 " fill-opacity="1" fill-rule="nonzero"/></g></svg>