<svg xmlns="http://www.w3.org/2000/svg" xmlns:xlink="http://www.w3.org/1999/xlink" width="1080" zoomAndPan="magnify" viewBox="0 0 810 809.999993" height="1080" preserveAspectRatio="xMidYMid meet" version="1.0"><defs><clipPath id="1809f05fc3"><path d="M 169.070312 81 L 640.820312 81 L 640.820312 714 L 169.070312 714 Z M 169.070312 81 " clip-rule="nonzero"/></clipPath></defs><rect x="-81" width="972" fill="#ffffff" y="-80.999999" height="971.999992" fill-opacity="1"/><rect x="-81" width="972" fill="#000000" y="-80.999999" height="971.999992" fill-opacity="1"/><g clip-path="url(#1809f05fc3)"><path fill="#ffffff" d="M 354.835938 660.777344 C 289.34375 660.777344 249.777344 588.34375 285.164062 533.238281 L 515.683594 174.285156 C 521.925781 164.5625 525.242188 153.253906 525.242188 141.703125 C 525.242188 108.402344 498.25 81.40625 464.949219 81.40625 L 248.09375 81.40625 C 204.429688 81.40625 169.035156 116.804688 169.035156 160.46875 L 169.035156 635.011719 C 169.035156 678.675781 204.429688 714.074219 248.09375 714.074219 L 561.679688 714.074219 C 605.324219 714.074219 640.710938 678.710938 640.742188 635.070312 L 640.839844 494.191406 C 640.878906 441.875 572.644531 421.824219 544.371094 465.84375 L 453.925781 606.652344 C 432.261719 640.382812 394.925781 660.777344 354.835938 660.777344 Z M 354.835938 660.777344 " fill-opacity="1" fill-rule="nonzero"/></g></svg>