<svg xmlns="http://www.w3.org/2000/svg" viewBox="0 0 24 24" role="img" aria-label="WhatsApp">
  <path fill="#ffffff" d="M19.05 4.91A9.82 9.82 0 0 0 12.04 2a9.93 9.93 0 0 0-8.6 14.87L2 22l5.27-1.38a9.9 9.9 0 0 0 4.73 1.2h.01c5.48 0 9.95-4.46 9.95-9.94a9.86 9.86 0 0 0-2.91-6.97Zm-7.04 15.2h-.01a8.23 8.23 0 0 1-4.19-1.14l-.3-.18-3.13.82.84-3.05-.2-.32a8.24 8.24 0 1 1 6.99 3.87Zm4.53-6.18c-.25-.13-1.46-.72-1.69-.8-.22-.08-.39-.13-.55.13-.16.25-.63.8-.77.96-.14.17-.29.19-.54.06-.25-.12-1.05-.39-1.99-1.24-.74-.66-1.24-1.48-1.39-1.73-.14-.25-.02-.38.11-.5.12-.12.25-.29.38-.43.13-.14.17-.25.25-.41.08-.17.04-.31-.02-.44-.06-.12-.55-1.33-.76-1.82-.2-.48-.4-.41-.55-.42h-.47c-.17 0-.44.06-.67.31-.22.25-.86.84-.86 2.05 0 1.2.88 2.37 1 2.53.13.17 1.72 2.62 4.16 3.68.58.25 1.03.4 1.39.52.58.18 1.1.16 1.51.1.46-.07 1.46-.6 1.67-1.17.2-.58.2-1.07.14-1.17-.05-.1-.21-.16-.46-.29Z"/>
</svg>
